<?xml version="1.0" encoding="UTF-8" standalone="no"?>
<!-- Generator: Adobe Illustrator 25.2.1, SVG Export Plug-In . SVG Version: 6.00 Build 0)  -->

<svg
   version="1.1"
   id="fullcolor"
   x="0px"
   y="0px"
   viewBox="0 0 221.40195 58.000002"
   xml:space="preserve"
   width="263.71954"
   height="69.085815"
   xmlns="http://www.w3.org/2000/svg"
   xmlns:svg="http://www.w3.org/2000/svg"><defs
   id="defs69">
	
	
	

		
		
		
		
		
		
		
		
		
		
		
		
		
		
		
		
		
		
		
		
		
		
		
		
		
		
		
		
		
		
		
		
		
		
		
		
		
		
		
		
		
		
		
		
		
		
		
		
		
		
		
		
		
		
		
		
		
		
		
		
		
		
		
		
		
		
	</defs>
<style
   type="text/css"
   id="style1">
	.st0{fill:#13294B;}
	.st1{fill:#FF552E;}
</style>
<g
   id="g3">
		<path
   class="st0"
   d="M 24.9,20.7 V 11 H 0 v 9.7 H 5.5 V 37.3 H 0 V 47 H 24.9 V 37.3 H 19.4 V 20.7 Z m -5.5,18 h 4.2 v 6.9 H 1.4 V 38.7 H 5.6 C 6.4,38.7 7,38.1 7,37.3 V 20.7 C 7,19.9 6.4,19.3 5.6,19.3 H 1.4 v -6.9 h 22.2 v 6.9 h -4.2 c -0.8,0 -1.4,0.6 -1.4,1.4 v 16.6 c 0,0.8 0.6,1.4 1.4,1.4 z"
   id="path1" />
		<g
   id="g2">
			<path
   class="st1"
   d="m 19.4,19.3 h 4.2 V 12.4 H 1.4 v 6.9 h 4.2 c 0.8,0 1.4,0.6 1.4,1.4 v 16.6 c 0,0.8 -0.6,1.4 -1.4,1.4 H 1.4 v 6.9 H 23.6 V 38.7 H 19.4 C 18.6,38.7 18,38.1 18,37.3 V 20.7 c 0,-0.8 0.6,-1.4 1.4,-1.4 z"
   id="path2" />
		</g>
	</g><rect
   x="42.900002"
   class="st0"
   width="1.1"
   height="58"
   id="rect3"
   y="0" /><path
   class="st0"
   d="m 62.401952,48.494144 v -2.8 h 0.9 v 2.8 c 0,1.1 0.4,1.4 1,1.4 0.6,0 1,-0.4 1,-1.4 v -2.8 h 0.8 v 2.8 c 0,1.6 -0.7,2.3 -1.9,2.3 -1.1,-0.1 -1.8,-0.7 -1.8,-2.3 z"
   id="path33" /><path
   class="st0"
   d="m 67.601952,45.694144 h 0.9 l 1.5,2.8 0.5,1 v 0 c 0,-0.5 -0.1,-1.1 -0.1,-1.7 v -2.1 h 0.8 v 4.9 h -0.9 l -1.4,-2.7 -0.5,-1 v 0 c 0,0.5 0.1,1.1 0.1,1.7 v 2.2 h -0.8 v -5.1 z"
   id="path34" /><path
   class="st0"
   d="m 72.801952,45.694144 h 0.9 v 4.9 h -0.9 z"
   id="path35" /><path
   class="st0"
   d="m 74.701952,45.694144 h 0.9 l 0.7,2.5 c 0.2,0.6 0.3,1 0.4,1.6 v 0 c 0.2,-0.6 0.3,-1 0.4,-1.6 l 0.7,-2.5 h 0.9 l -1.5,4.9 h -1 z"
   id="path36" /><path
   class="st0"
   d="m 79.701952,45.694144 h 3 v 0.7 h -2.1 v 1.3 h 1.8 v 0.7 h -1.8 v 1.5 h 2.2 v 0.7 h -3.1 z"
   id="path37" /><path
   class="st0"
   d="m 84.001952,45.694144 h 1.7 c 1,0 1.8,0.4 1.8,1.5 0,0.8 -0.4,1.2 -1,1.4 l 1.2,2.1 h -1 l -1,-2 h -0.8 v 1.9 h -0.9 z m 1.6,2.3 c 0.7,0 1,-0.3 1,-0.8 0,-0.6 -0.4,-0.8 -1,-0.8 h -0.7 v 1.6 z"
   id="path38" /><path
   class="st0"
   d="m 88.401952,49.994144 0.5,-0.6 c 0.4,0.3 0.8,0.6 1.3,0.6 0.6,0 0.9,-0.2 0.9,-0.6 0,-0.4 -0.3,-0.5 -0.8,-0.7 l -0.6,-0.4 c -0.5,-0.2 -1,-0.6 -1,-1.3 0,-0.8 0.7,-1.4 1.7,-1.4 0.6,0 1.1,0.2 1.5,0.6 l -0.4,0.6 c -0.3,-0.3 -0.6,-0.4 -1.1,-0.4 -0.5,0 -0.8,0.2 -0.8,0.6 0,0.4 0.4,0.5 0.8,0.7 l 0.7,0.3 c 0.6,0.2 1,0.6 1,1.3 0,0.8 -0.7,1.5 -1.8,1.5 -0.7,-0.1 -1.4,-0.3 -1.9,-0.8 z"
   id="path39" /><path
   class="st0"
   d="m 93.201952,45.694144 h 0.9 v 4.9 h -0.9 z"
   id="path40" /><path
   class="st0"
   d="m 96.601952,46.394144 h -1.4 v -0.7 h 3.7 v 0.7 h -1.4 v 4.2 h -0.9 z"
   id="path41" /><path
   class="st0"
   d="m 101.10195,48.794144 -1.499998,-3.1 h 0.899998 l 0.5,1.3 c 0.1,0.4 0.3,0.7 0.4,1.1 v 0 c 0.2,-0.4 0.3,-0.7 0.5,-1.1 l 0.5,-1.3 h 0.9 l -1.5,3.1 v 1.8 h -0.9 v -1.8 z"
   id="path42" /><path
   class="st0"
   d="m 105.60195,48.194144 c 0,-1.6 0.9,-2.5 2.2,-2.5 1.3,0 2.2,0.9 2.2,2.5 0,1.6 -0.9,2.6 -2.2,2.6 -1.3,-0.1 -2.2,-1 -2.2,-2.6 z m 3.4,0 c 0,-1.1 -0.5,-1.8 -1.3,-1.8 -0.8,0 -1.3,0.7 -1.3,1.8 0,1.1 0.5,1.8 1.3,1.8 0.9,0 1.3,-0.7 1.3,-1.8 z"
   id="path43" /><path
   class="st0"
   d="m 111.20195,45.694144 h 3 v 0.7 h -2.1 v 1.4 h 1.8 v 0.7 h -1.8 v 2.1 h -0.9 z"
   id="path44" /><path
   class="st0"
   d="m 116.90195,45.694144 h 0.9 v 4.9 h -0.9 z"
   id="path45" /><path
   class="st0"
   d="m 119.30195,45.694144 h 0.9 v 4.2 h 2.1 v 0.7 h -2.9 v -4.9 z"
   id="path46" /><path
   class="st0"
   d="m 123.30195,45.694144 h 0.9 v 4.2 h 2.1 v 0.7 h -2.9 v -4.9 z"
   id="path47" /><path
   class="st0"
   d="m 127.40195,45.694144 h 0.9 v 4.9 h -0.9 z"
   id="path48" /><path
   class="st0"
   d="m 129.70195,45.694144 h 0.9 l 1.5,2.8 0.5,1 v 0 c 0,-0.5 -0.1,-1.1 -0.1,-1.7 v -2.1 h 0.8 v 4.9 h -0.9 l -1.5,-2.8 -0.5,-1 v 0 c 0,0.5 0.1,1.1 0.1,1.7 v 2.2 h -0.8 z"
   id="path49" /><path
   class="st0"
   d="m 134.70195,48.194144 c 0,-1.6 0.9,-2.5 2.2,-2.5 1.3,0 2.2,0.9 2.2,2.5 0,1.6 -0.9,2.6 -2.2,2.6 -1.3,-0.1 -2.2,-1 -2.2,-2.6 z m 3.5,0 c 0,-1.1 -0.5,-1.8 -1.3,-1.8 -0.8,0 -1.3,0.7 -1.3,1.8 0,1.1 0.5,1.8 1.3,1.8 0.8,0 1.3,-0.7 1.3,-1.8 z"
   id="path50" /><path
   class="st0"
   d="m 140.40195,45.694144 h 0.9 v 4.9 h -0.9 z"
   id="path51" /><path
   class="st0"
   d="m 142.40195,49.994144 0.5,-0.6 c 0.4,0.3 0.8,0.6 1.3,0.6 0.6,0 0.9,-0.2 0.9,-0.6 0,-0.4 -0.3,-0.5 -0.8,-0.7 l -0.7,-0.3 c -0.5,-0.2 -1,-0.6 -1,-1.3 0,-0.8 0.7,-1.4 1.7,-1.4 0.6,0 1.1,0.2 1.5,0.6 l -0.4,0.6 c -0.3,-0.3 -0.6,-0.4 -1.1,-0.4 -0.5,0 -0.8,0.2 -0.8,0.6 0,0.4 0.4,0.5 0.8,0.7 l 0.7,0.3 c 0.6,0.2 1,0.6 1,1.3 0,0.8 -0.7,1.5 -1.8,1.5 -0.7,-0.2 -1.3,-0.4 -1.8,-0.9 z"
   id="path52" /><path
   class="st0"
   d="m 148.60195,48.494144 v -2.8 h 0.9 v 2.8 c 0,1.1 0.4,1.4 1,1.4 0.6,0 1,-0.4 1,-1.4 v -2.8 h 0.8 v 2.8 c 0,1.6 -0.7,2.3 -1.9,2.3 -1,-0.1 -1.8,-0.7 -1.8,-2.3 z"
   id="path53" /><path
   class="st0"
   d="m 153.90195,45.694144 h 1.7 c 1,0 1.8,0.4 1.8,1.5 0,0.8 -0.4,1.2 -1,1.4 l 1.2,2.1 h -1 l -1.1,-1.9 h -0.8 v 1.9 h -0.9 v -5 z m 1.6,2.3 c 0.7,0 1,-0.3 1,-0.8 0,-0.6 -0.4,-0.8 -1,-0.8 h -0.7 v 1.6 z"
   id="path54" /><path
   class="st0"
   d="m 158.70195,45.694144 h 1.6 c 1,0 1.8,0.3 1.8,1.2 0,0.5 -0.3,0.9 -0.7,1.1 v 0 c 0.5,0.1 0.9,0.5 0.9,1.2 0,1 -0.8,1.5 -1.9,1.5 h -1.7 z m 1.5,2 c 0.7,0 1,-0.3 1,-0.7 0,-0.5 -0.3,-0.7 -1,-0.7 h -0.6 v 1.4 z m 0.1,2.3 c 0.7,0 1.1,-0.3 1.1,-0.8 0,-0.5 -0.4,-0.7 -1.1,-0.7 h -0.7 v 1.6 h 0.7 z"
   id="path55" /><path
   class="st0"
   d="m 164.50195,45.694144 h 1 l 1.6,4.9 h -0.9 l -0.4,-1.3 h -1.7 l -0.4,1.3 h -0.9 z m -0.1,2.9 h 1.3 l -0.2,-0.6 c -0.2,-0.5 -0.3,-1.1 -0.4,-1.6 v 0 c -0.1,0.6 -0.3,1.1 -0.4,1.6 z"
   id="path56" /><path
   class="st0"
   d="m 168.10195,45.694144 h 0.9 l 1.5,2.8 0.5,1 v 0 c 0,-0.5 -0.1,-1.1 -0.1,-1.7 v -2.1 h 0.8 v 4.9 h -0.9 l -1.5,-2.8 -0.5,-1 v 0 c 0,0.5 0.1,1.1 0.1,1.7 v 2.2 h -0.8 z"
   id="path57" /><path
   class="st0"
   d="m 174.40195,45.694144 h 1 l 1.6,4.9 h -0.9 l -0.4,-1.3 h -1.7 l -0.4,1.3 h -0.9 z m -0.2,2.9 h 1.3 l -0.2,-0.6 c -0.2,-0.5 -0.3,-1.1 -0.4,-1.6 v 0 c -0.1,0.6 -0.3,1.1 -0.4,1.6 z"
   id="path58" /><path
   class="st0"
   d="m 177.70195,48.394144 h 1.8 v 0.6 h -1.8 z"
   id="path59" /><path
   class="st0"
   d="m 180.70195,48.194144 c 0,-1.6 1,-2.6 2.3,-2.6 0.6,0 1.1,0.3 1.4,0.6 l -0.5,0.6 c -0.3,-0.3 -0.6,-0.4 -0.9,-0.4 -0.8,0 -1.4,0.7 -1.4,1.8 0,1.1 0.5,1.8 1.4,1.8 0.4,0 0.8,-0.2 1.1,-0.5 l 0.5,0.6 c -0.4,0.5 -0.9,0.7 -1.6,0.7 -1.4,-0.1 -2.3,-1 -2.3,-2.6 z"
   id="path60" /><path
   class="st0"
   d="m 185.50195,45.694144 h 0.9 v 2 h 2 v -2 h 0.9 v 4.9 h -0.9 v -2.2 h -2 v 2.2 h -0.9 z"
   id="path61" /><path
   class="st0"
   d="m 191.80195,45.694144 h 1 l 1.6,4.9 h -0.9 l -0.4,-1.3 h -1.7 l -0.4,1.3 h -0.9 z m -0.1,2.9 h 1.3 l -0.2,-0.6 c -0.2,-0.5 -0.3,-1.1 -0.4,-1.6 v 0 c -0.1,0.6 -0.3,1.1 -0.4,1.6 z"
   id="path62" /><path
   class="st0"
   d="m 195.40195,45.694144 h 1 l 0.9,2.4 c 0.1,0.3 0.2,0.6 0.3,1 v 0 c 0.1,-0.3 0.2,-0.7 0.3,-1 l 0.9,-2.4 h 1 v 4.9 h -0.8 v -2.3 c 0,-0.5 0.1,-1.1 0.1,-1.6 v 0 l -0.4,1.1 -0.8,2.2 h -0.5 l -0.8,-2.2 -0.4,-1.1 v 0 c 0,0.5 0.1,1.1 0.1,1.6 v 2.3 h -0.8 v -4.9 z"
   id="path63" /><path
   class="st0"
   d="m 201.30195,45.694144 h 1.6 c 1.1,0 1.9,0.4 1.9,1.5 0,1.1 -0.8,1.6 -1.9,1.6 h -0.7 v 1.8 h -0.9 z m 1.6,2.4 c 0.7,0 1.1,-0.3 1.1,-0.9 0,-0.6 -0.4,-0.8 -1.1,-0.8 h -0.6 v 1.7 z"
   id="path64" /><path
   class="st0"
   d="m 206.80195,45.694144 h 1 l 1.6,4.9 h -0.9 l -0.4,-1.3 h -1.7 l -0.4,1.3 h -0.9 z m -0.2,2.9 h 1.3 l -0.2,-0.6 c -0.2,-0.5 -0.3,-1.1 -0.4,-1.6 v 0 c -0.1,0.6 -0.3,1.1 -0.4,1.6 z"
   id="path65" /><path
   class="st0"
   d="m 210.40195,45.694144 h 0.9 v 4.9 h -0.9 z"
   id="path66" /><path
   class="st0"
   d="m 212.50195,48.194144 c 0,-1.6 1,-2.6 2.3,-2.6 0.7,0 1.2,0.3 1.5,0.6 l -0.5,0.6 c -0.2,-0.2 -0.5,-0.4 -1,-0.4 -0.9,0 -1.5,0.7 -1.5,1.8 0,1.1 0.5,1.8 1.5,1.8 0.3,0 0.6,-0.1 0.7,-0.2 v -1.1 h -0.8 v -0.7 h 1.7 v 2.2 c -0.3,0.3 -0.9,0.6 -1.6,0.6 -1.3,-0.1 -2.3,-1 -2.3,-2.6 z"
   id="path67" /><path
   class="st0"
   d="m 217.80195,45.694144 h 0.9 l 1.5,2.8 0.5,1 v 0 c 0,-0.5 -0.1,-1.1 -0.1,-1.7 v -2.1 h 0.8 v 4.9 h -0.9 l -1.5,-2.8 -0.5,-1 v 0 c 0,0.5 0.1,1.1 0.1,1.7 v 2.2 h -0.8 z"
   id="path68" />
<g
   id="text1"
   style="font-size:16.0071px;line-height:0.95;fill:#13294b;stroke-width:0.839536"
   aria-label="School of Labor and&#10;Employment Relations "><path
     style="font-weight:bold;font-family:'Source Sans 3';-inkscape-font-specification:'Source Sans 3 Bold'"
     d="m 65.504069,18.687132 q -1.040462,0 -2.048909,-0.368163 -1.008447,-0.384171 -1.808802,-1.152512 l 1.248553,-1.536681 q 0.560249,0.480213 1.264561,0.752334 0.72032,0.27212 1.408625,0.27212 0.736326,0 1.088483,-0.27212 0.368163,-0.272121 0.368163,-0.736327 0,-0.336149 -0.192085,-0.528234 -0.176078,-0.208093 -0.512227,-0.368164 -0.336149,-0.160071 -0.800355,-0.352156 l -1.360604,-0.560248 q -0.528234,-0.240107 -1.024454,-0.60827 -0.480213,-0.38417 -0.784348,-0.928412 -0.288128,-0.560248 -0.288128,-1.328589 0,-0.864383 0.464206,-1.5526886 0.480213,-0.7043124 1.312582,-1.1204969 0.848376,-0.4321917 1.936859,-0.4321917 0.944419,0 1.82481,0.3361491 0.88039,0.336149 1.536681,0.976433 l -1.248554,1.5206741 q -0.512227,-0.38417 -1.056468,-0.592262 -0.528235,-0.2080926 -1.056469,-0.2080926 -0.60827,0 -0.976433,0.2561136 -0.352156,0.240106 -0.352156,0.688305 0,0.304135 0.208092,0.528234 0.208093,0.208093 0.576256,0.368164 0.368163,0.144064 0.800355,0.336149 l 1.344596,0.544241 q 0.640284,0.256114 1.088483,0.640284 0.464206,0.384171 0.720319,0.928412 0.256114,0.528234 0.256114,1.264561 0,0.864383 -0.464206,1.60071 -0.464206,0.736326 -1.344596,1.184525 -0.880391,0.448199 -2.128944,0.448199 z m 9.028,0 q -1.120497,0 -2.032902,-0.49622 -0.896397,-0.49622 -1.424632,-1.424632 -0.512227,-0.928412 -0.512227,-2.240994 0,-1.312582 0.576256,-2.240994 0.576255,-0.928412 1.520674,-1.424632 0.944419,-0.49622 2.032902,-0.49622 0.736326,0 1.312582,0.240107 0.592262,0.224099 1.008447,0.60827 l -1.10449,1.456646 q -0.208092,-0.176079 -0.480213,-0.288128 -0.256113,-0.11205 -0.592262,-0.11205 -0.560249,0 -0.976433,0.272121 -0.416185,0.27212 -0.656292,0.784348 -0.240106,0.512227 -0.240106,1.200532 0,0.688305 0.240106,1.200532 0.240107,0.512228 0.640284,0.784348 0.416185,0.272121 0.928412,0.272121 0.400178,0 0.752334,-0.144064 0.352156,-0.144064 0.656291,-0.368163 l 0.928412,1.440639 q -0.49622,0.448199 -1.168519,0.720319 -0.672298,0.256114 -1.408624,0.256114 z m 3.985775,-0.192085 V 7.2740701 h 2.353044 v 2.7532209 l -0.11205,1.424632 q 0.448199,-0.400177 1.040461,-0.736327 0.60827,-0.352156 1.408625,-0.352156 1.312582,0 1.888838,0.864384 0.576255,0.848376 0.576255,2.337036 v 4.930187 h -2.353043 v -4.626052 q 0,-0.864383 -0.240107,-1.184525 -0.224099,-0.320142 -0.736326,-0.320142 -0.448199,0 -0.768341,0.208092 -0.320142,0.192085 -0.704312,0.560248 v 5.362379 z m 12.549552,0.192085 q -1.008448,0 -1.888838,-0.480213 -0.88039,-0.49622 -1.440639,-1.424632 -0.544241,-0.944419 -0.544241,-2.257001 0,-1.312582 0.544241,-2.240994 0.560249,-0.944419 1.440639,-1.424632 0.88039,-0.49622 1.888838,-0.49622 0.99244,0 1.87283,0.49622 0.880391,0.480213 1.424632,1.424632 0.560249,0.928412 0.560249,2.240994 0,1.312582 -0.560249,2.257001 -0.544241,0.928412 -1.424632,1.424632 -0.88039,0.480213 -1.87283,0.480213 z m 0,-1.904845 q 0.480213,0 0.800355,-0.272121 0.336149,-0.27212 0.49622,-0.784348 0.160071,-0.512227 0.160071,-1.200532 0,-0.688305 -0.160071,-1.200532 -0.160071,-0.512228 -0.49622,-0.784348 -0.320142,-0.272121 -0.800355,-0.272121 -0.49622,0 -0.816362,0.272121 -0.320142,0.27212 -0.480213,0.784348 -0.160071,0.512227 -0.160071,1.200532 0,0.688305 0.160071,1.200532 0.160071,0.512228 0.480213,0.784348 0.320142,0.272121 0.816362,0.272121 z m 8.883943,1.904845 q -1.008447,0 -1.888837,-0.480213 -0.880391,-0.49622 -1.440639,-1.424632 -0.544242,-0.944419 -0.544242,-2.257001 0,-1.312582 0.544242,-2.240994 0.560248,-0.944419 1.440639,-1.424632 0.88039,-0.49622 1.888837,-0.49622 0.992441,0 1.872831,0.49622 0.88039,0.480213 1.42463,1.424632 0.56025,0.928412 0.56025,2.240994 0,1.312582 -0.56025,2.257001 -0.54424,0.928412 -1.42463,1.424632 -0.88039,0.480213 -1.872831,0.480213 z m 0,-1.904845 q 0.480211,0 0.800351,-0.272121 0.33615,-0.27212 0.49622,-0.784348 0.16008,-0.512227 0.16008,-1.200532 0,-0.688305 -0.16008,-1.200532 -0.16007,-0.512228 -0.49622,-0.784348 -0.32014,-0.272121 -0.800351,-0.272121 -0.49622,0 -0.816362,0.272121 -0.320142,0.27212 -0.480213,0.784348 -0.160071,0.512227 -0.160071,1.200532 0,0.688305 0.160071,1.200532 0.160071,0.512228 0.480213,0.784348 0.320142,0.272121 0.816362,0.272121 z m 7.635391,1.888838 q -0.80035,0 -1.28057,-0.320142 -0.4642,-0.336149 -0.6723,-0.928412 -0.20809,-0.60827 -0.20809,-1.408625 V 7.2900772 h 2.35305 v 8.8199118 q 0,0.38417 0.12805,0.528234 0.14407,0.128057 0.30414,0.128057 0.064,0 0.11205,0 0.064,-0.01601 0.16007,-0.03201 l 0.28813,1.744774 q -0.19209,0.08003 -0.49622,0.128056 -0.28813,0.06403 -0.68831,0.06403 z m 9.028,0.01601 q -1.00844,0 -1.88883,-0.480213 -0.88039,-0.49622 -1.44064,-1.424632 -0.54424,-0.944419 -0.54424,-2.257001 0,-1.312582 0.54424,-2.240994 0.56025,-0.944419 1.44064,-1.424632 0.88039,-0.49622 1.88883,-0.49622 0.99244,0 1.87283,0.49622 0.8804,0.480213 1.42464,1.424632 0.56025,0.928412 0.56025,2.240994 0,1.312582 -0.56025,2.257001 -0.54424,0.928412 -1.42464,1.424632 -0.88039,0.480213 -1.87283,0.480213 z m 0,-1.904845 q 0.48022,0 0.80036,-0.272121 0.33615,-0.27212 0.49622,-0.784348 0.16007,-0.512227 0.16007,-1.200532 0,-0.688305 -0.16007,-1.200532 -0.16007,-0.512228 -0.49622,-0.784348 -0.32014,-0.272121 -0.80036,-0.272121 -0.49622,0 -0.81636,0.272121 -0.32014,0.27212 -0.48021,0.784348 -0.16007,0.512227 -0.16007,1.200532 0,0.688305 0.16007,1.200532 0.16007,0.512228 0.48021,0.784348 0.32014,0.272121 0.81636,0.272121 z m 5.79548,1.71276 v -8.355706 q 0,-0.8483764 0.27212,-1.5366817 0.28813,-0.6883052 0.92841,-1.1044898 0.65629,-0.4161846 1.72877,-0.4161846 0.49622,0 0.9124,0.096043 0.41619,0.096043 0.6723,0.1920852 l -0.4642,1.6807454 q -0.40018,-0.1120497 -0.78435,-0.1120497 -0.43219,0 -0.6723,0.2721207 -0.24011,0.2561136 -0.24011,0.8643829 v 8.419735 z m -1.16852,-6.098705 v -1.744774 l 1.32859,-0.09604 h 3.6176 v 1.840817 z m 9.62027,6.098705 V 8.058418 h 2.35304 v 8.451748 h 4.12984 v 1.984881 z m 10.10047,0.192085 q -0.72032,0 -1.26456,-0.320142 -0.52823,-0.320142 -0.81636,-0.864384 -0.28813,-0.544241 -0.28813,-1.216539 0,-1.280568 1.05647,-1.968873 1.05647,-0.704313 3.40951,-0.944419 -0.016,-0.352156 -0.16007,-0.592263 -0.12805,-0.256113 -0.40017,-0.38417 -0.27212,-0.144064 -0.68831,-0.144064 -0.49622,0 -1.00845,0.176078 -0.51222,0.176078 -1.10449,0.512227 l -0.83237,-1.536681 q 0.51223,-0.320142 1.05647,-0.544242 0.54424,-0.240106 1.1205,-0.368163 0.59226,-0.128057 1.21654,-0.128057 1.02445,0 1.71276,0.400178 0.70431,0.38417 1.07247,1.184525 0.36817,0.784348 0.36817,2.016895 v 4.530009 h -1.92085 l -0.16008,-0.816362 h -0.064 q -0.51223,0.448198 -1.07248,0.736326 -0.56025,0.272121 -1.23255,0.272121 z m 0.78435,-1.840817 q 0.40018,0 0.70431,-0.176078 0.30414,-0.176078 0.60827,-0.480213 v -1.344596 q -0.83236,0.11205 -1.32859,0.288128 -0.48021,0.176078 -0.6883,0.432191 -0.19209,0.240107 -0.19209,0.544242 0,0.368163 0.24011,0.560248 0.25611,0.176078 0.65629,0.176078 z m 9.81237,1.840817 q -0.52824,0 -1.05647,-0.256114 -0.52824,-0.27212 -1.00845,-0.784348 h -0.064 l -0.19208,0.848377 H 147.3973 V 7.2740701 h 2.35304 v 2.7532209 l -0.064,1.21654 q 0.4482,-0.416185 0.99244,-0.640284 0.54425,-0.240107 1.10449,-0.240107 0.96043,0 1.66474,0.49622 0.70432,0.49622 1.07248,1.408625 0.38417,0.896398 0.38417,2.112937 0,1.360604 -0.48021,2.337037 -0.48022,0.960426 -1.24856,1.472653 -0.75233,0.49622 -1.61671,0.49622 z M 151.0149,16.76628 q 0.40018,0 0.73633,-0.240107 0.35216,-0.240106 0.54424,-0.752333 0.19209,-0.528235 0.19209,-1.344597 0,-0.720319 -0.16007,-1.184525 -0.14407,-0.480213 -0.4482,-0.720319 -0.30414,-0.240107 -0.76834,-0.240107 -0.35216,0 -0.68831,0.176078 -0.32014,0.160071 -0.6723,0.544242 v 3.249441 q 0.30414,0.27212 0.64029,0.400177 0.33615,0.11205 0.62427,0.11205 z m 8.96398,1.920852 q -1.00845,0 -1.88884,-0.480213 -0.88039,-0.49622 -1.44064,-1.424632 -0.54424,-0.944419 -0.54424,-2.257001 0,-1.312582 0.54424,-2.240994 0.56025,-0.944419 1.44064,-1.424632 0.88039,-0.49622 1.88884,-0.49622 0.99244,0 1.87283,0.49622 0.88039,0.480213 1.42463,1.424632 0.56025,0.928412 0.56025,2.240994 0,1.312582 -0.56025,2.257001 -0.54424,0.928412 -1.42463,1.424632 -0.88039,0.480213 -1.87283,0.480213 z m 0,-1.904845 q 0.48021,0 0.80035,-0.272121 0.33615,-0.27212 0.49622,-0.784348 0.16007,-0.512227 0.16007,-1.200532 0,-0.688305 -0.16007,-1.200532 -0.16007,-0.512228 -0.49622,-0.784348 -0.32014,-0.272121 -0.80035,-0.272121 -0.49622,0 -0.81636,0.272121 -0.32015,0.27212 -0.48022,0.784348 -0.16007,0.512227 -0.16007,1.200532 0,0.688305 0.16007,1.200532 0.16007,0.512228 0.48022,0.784348 0.32014,0.272121 0.81636,0.272121 z m 5.47443,1.71276 v -7.939522 h 1.92085 l 0.16007,1.392618 h 0.064 q 0.43219,-0.800355 1.02445,-1.184525 0.60827,-0.400178 1.23255,-0.400178 0.33615,0 0.56025,0.04802 0.2241,0.03201 0.38417,0.112049 l -0.4482,2.000888 q -0.19209,-0.04802 -0.36816,-0.06403 -0.17608,-0.03201 -0.4322,-0.03201 -0.44819,0 -0.94441,0.320142 -0.48022,0.320142 -0.80036,1.136504 v 4.610045 z m 11.57316,0.192085 q -0.72032,0 -1.26456,-0.320142 -0.52824,-0.320142 -0.81637,-0.864384 -0.28812,-0.544241 -0.28812,-1.216539 0,-1.280568 1.05647,-1.968873 1.05646,-0.704313 3.40951,-0.944419 -0.016,-0.352156 -0.16007,-0.592263 -0.12806,-0.256113 -0.40018,-0.38417 -0.27212,-0.144064 -0.68831,-0.144064 -0.49622,0 -1.00844,0.176078 -0.51223,0.176078 -1.10449,0.512227 l -0.83237,-1.536681 q 0.51222,-0.320142 1.05647,-0.544242 0.54424,-0.240106 1.12049,-0.368163 0.59227,-0.128057 1.21654,-0.128057 1.02446,0 1.71276,0.400178 0.70431,0.38417 1.07248,1.184525 0.36816,0.784348 0.36816,2.016895 v 4.530009 h -1.92085 l -0.16007,-0.816362 h -0.064 q -0.51223,0.448198 -1.07248,0.736326 -0.56024,0.272121 -1.23254,0.272121 z m 0.78435,-1.840817 q 0.40017,0 0.70431,-0.176078 0.30413,-0.176078 0.60827,-0.480213 v -1.344596 q -0.83237,0.11205 -1.32859,0.288128 -0.48021,0.176078 -0.68831,0.432191 -0.19208,0.240107 -0.19208,0.544242 0,0.368163 0.2401,0.560248 0.25612,0.176078 0.6563,0.176078 z m 5.65051,1.648732 v -7.939522 h 1.92085 l 0.16007,1.008448 h 0.064 q 0.49622,-0.49622 1.12049,-0.848377 0.62428,-0.352156 1.42464,-0.352156 1.31258,0 1.88883,0.864384 0.57626,0.848376 0.57626,2.337036 v 4.930187 h -2.35304 v -4.626052 q 0,-0.864383 -0.24011,-1.184525 -0.2241,-0.320142 -0.73633,-0.320142 -0.4482,0 -0.76834,0.208092 -0.32014,0.192085 -0.70431,0.560248 v 5.362379 z m 11.98933,0.192085 q -1.47266,0 -2.36905,-1.10449 -0.88039,-1.120497 -0.88039,-3.057356 0,-1.296575 0.4642,-2.224987 0.48021,-0.928412 1.23255,-1.424632 0.76834,-0.512227 1.60071,-0.512227 0.65629,0 1.10449,0.2241 0.4482,0.224099 0.84837,0.608269 l -0.096,-1.2165391 V 7.2740701 h 2.35304 V 18.495047 h -1.92085 l -0.16007,-0.784348 h -0.064 q -0.41618,0.416184 -0.97643,0.704312 -0.56025,0.272121 -1.1365,0.272121 z m 0.60827,-1.920852 q 0.38417,0 0.70431,-0.160071 0.32014,-0.160071 0.59226,-0.560249 v -3.249441 q -0.30413,-0.288127 -0.64028,-0.400177 -0.33615,-0.11205 -0.6723,-0.11205 -0.38417,0 -0.70431,0.240107 -0.32015,0.240106 -0.52824,0.736326 -0.19208,0.480213 -0.19208,1.232547 0,1.168518 0.38417,1.728767 0.38417,0.544241 1.05647,0.544241 z"
     id="path3" /><path
     style="font-weight:bold;font-family:'Source Sans 3';-inkscape-font-specification:'Source Sans 3 Bold'"
     d="M 62.318656,34.793942 V 24.357313 h 6.530896 v 1.984881 h -4.177853 v 2.09693 h 3.553576 v 1.968873 h -3.553576 v 2.401065 h 4.337924 v 1.98488 z m 8.57981,0 v -7.939521 h 1.920852 l 0.160071,1.024454 h 0.06403 q 0.480213,-0.49622 1.040462,-0.848376 0.576255,-0.368163 1.360603,-0.368163 0.848376,0 1.376611,0.352156 0.528234,0.336149 0.816362,0.976433 0.528234,-0.544241 1.120497,-0.928412 0.592262,-0.400177 1.37661,-0.400177 1.296575,0 1.888838,0.864383 0.592263,0.848376 0.592263,2.337037 v 4.930186 H 80.262619 V 30.16789 q 0,-0.864383 -0.240106,-1.184525 -0.2241,-0.320142 -0.736327,-0.320142 -0.304135,0 -0.640284,0.192085 -0.336149,0.176078 -0.720319,0.576256 v 5.362378 H 75.572539 V 30.16789 q 0,-0.864383 -0.240107,-1.184525 -0.224099,-0.320142 -0.736326,-0.320142 -0.60827,0 -1.344596,0.768341 v 5.362378 z m 13.718091,2.945306 V 26.854421 h 1.920852 l 0.160071,0.784348 h 0.06403 q 0.464206,-0.432192 1.056469,-0.704313 0.592263,-0.27212 1.200532,-0.27212 0.960426,0 1.648732,0.49622 0.704312,0.49622 1.072475,1.408625 0.384171,0.912404 0.384171,2.128944 0,1.360603 -0.480213,2.321029 -0.480213,0.960426 -1.248554,1.472653 -0.752334,0.49622 -1.616717,0.49622 -0.49622,0 -0.99244,-0.208092 -0.480213,-0.224099 -0.896398,-0.624277 l 0.08004,1.264561 v 2.321029 z m 3.617604,-4.674073 q 0.400178,0 0.736327,-0.240106 0.352156,-0.240107 0.544241,-0.752334 0.192086,-0.528234 0.192086,-1.344596 0,-0.72032 -0.160071,-1.184525 -0.144064,-0.480213 -0.448199,-0.72032 -0.304135,-0.240106 -0.768341,-0.240106 -0.352156,0 -0.688305,0.176078 -0.320142,0.160071 -0.672298,0.544241 v 3.249441 q 0.320142,0.272121 0.640284,0.400178 0.336149,0.112049 0.624276,0.112049 z m 7.71542,1.904845 q -0.800355,0 -1.280568,-0.320142 -0.464206,-0.336149 -0.672298,-0.928412 -0.208092,-0.608269 -0.208092,-1.408624 v -8.723869 h 2.353043 v 8.819911 q 0,0.384171 0.128057,0.528235 0.144064,0.128056 0.304135,0.128056 0.06403,0 0.11205,0 0.06403,-0.01601 0.160071,-0.03201 l 0.288127,1.744774 q -0.192085,0.08004 -0.49622,0.128057 -0.288127,0.06403 -0.688305,0.06403 z m 5.826569,0.01601 q -1.00844,0 -1.888835,-0.480213 -0.88039,-0.49622 -1.440639,-1.424632 -0.544241,-0.944418 -0.544241,-2.257001 0,-1.312582 0.544241,-2.240993 0.560249,-0.944419 1.440639,-1.424632 0.880395,-0.49622 1.888835,-0.49622 0.99244,0 1.87283,0.49622 0.88039,0.480213 1.42464,1.424632 0.56024,0.928411 0.56024,2.240993 0,1.312583 -0.56024,2.257001 -0.54425,0.928412 -1.42464,1.424632 -0.88039,0.480213 -1.87283,0.480213 z m 0,-1.904845 q 0.48022,0 0.80036,-0.27212 0.33615,-0.272121 0.49622,-0.784348 0.16007,-0.512227 0.16007,-1.200533 0,-0.688305 -0.16007,-1.200532 -0.16007,-0.512227 -0.49622,-0.784348 -0.32014,-0.27212 -0.80036,-0.27212 -0.49622,0 -0.81636,0.27212 -0.32014,0.272121 -0.48021,0.784348 -0.16007,0.512227 -0.16007,1.200532 0,0.688306 0.16007,1.200533 0.16007,0.512227 0.48021,0.784348 0.32014,0.27212 0.81636,0.27212 z m 6.22293,4.818137 q -0.35215,0 -0.62427,-0.04802 -0.25612,-0.04802 -0.49622,-0.144064 l 0.41618,-1.728767 q 0.17608,0.04802 0.28813,0.04802 0.12806,0.01601 0.24011,0.01601 0.59226,0 0.9124,-0.304135 0.33615,-0.288128 0.48021,-0.736327 l 0.11205,-0.416184 -3.05735,-7.731429 h 2.36905 l 1.1365,3.409512 q 0.17608,0.544241 0.32014,1.10449 0.14407,0.560248 0.30414,1.152511 h 0.064 q 0.12805,-0.560248 0.25611,-1.120497 0.14406,-0.576256 0.28813,-1.136504 l 0.96042,-3.409512 h 2.25701 l -2.75323,8.019557 q -0.38417,0.99244 -0.83236,1.664738 -0.4322,0.672298 -1.07248,1.008447 -0.62428,0.352156 -1.5687,0.352156 z m 7.45931,-3.105377 v -7.939521 h 1.92085 l 0.16007,1.024454 h 0.064 q 0.48021,-0.49622 1.04046,-0.848376 0.57626,-0.368163 1.3606,-0.368163 0.84838,0 1.37661,0.352156 0.52824,0.336149 0.81637,0.976433 0.52823,-0.544241 1.12049,-0.928412 0.59227,-0.400177 1.37661,-0.400177 1.29658,0 1.88884,0.864383 0.59226,0.848376 0.59226,2.337037 v 4.930186 h -2.35304 V 30.16789 q 0,-0.864383 -0.24011,-1.184525 -0.22409,-0.320142 -0.73632,-0.320142 -0.30414,0 -0.64029,0.192085 -0.33614,0.176078 -0.72032,0.576256 v 5.362378 h -2.35304 V 30.16789 q 0,-0.864383 -0.24011,-1.184525 -0.22409,-0.320142 -0.73632,-0.320142 -0.60827,0 -1.3446,0.768341 v 5.362378 z m 17.27167,0.192085 q -1.13651,0 -2.04891,-0.49622 -0.91241,-0.49622 -1.44064,-1.424632 -0.52823,-0.928411 -0.52823,-2.240994 0,-1.296575 0.52823,-2.224986 0.54424,-0.928412 1.40863,-1.424632 0.86438,-0.512227 1.8088,-0.512227 1.1365,0 1.88884,0.512227 0.75233,0.49622 1.12049,1.360603 0.36817,0.864384 0.36817,1.936859 0,0.304135 -0.032,0.60827 -0.032,0.288128 -0.064,0.464206 h -5.2023 l -0.032,-1.632724 h 3.31347 q 0,-0.624277 -0.30413,-1.024455 -0.30414,-0.416184 -1.00845,-0.416184 -0.38417,0 -0.75233,0.208092 -0.36817,0.208092 -0.60827,0.72032 -0.24011,0.512227 -0.2241,1.424631 0.016,0.896398 0.32014,1.408625 0.32014,0.512227 0.80035,0.736327 0.48022,0.208092 1.00845,0.208092 0.46421,0 0.88039,-0.128057 0.43219,-0.144064 0.84838,-0.38417 l 0.76834,1.440639 q -0.59227,0.416184 -1.3446,0.656291 -0.75233,0.224099 -1.47265,0.224099 z m 4.73809,-0.192085 v -7.939521 h 1.92086 l 0.16007,1.008447 h 0.064 q 0.49622,-0.49622 1.12049,-0.848376 0.62428,-0.352156 1.42463,-0.352156 1.31259,0 1.88884,0.864383 0.57626,0.848376 0.57626,2.337037 v 4.930186 h -2.35305 V 30.16789 q 0,-0.864383 -0.2401,-1.184525 -0.2241,-0.320142 -0.73633,-0.320142 -0.4482,0 -0.76834,0.208092 -0.32014,0.192086 -0.70431,0.560249 v 5.362378 z m 12.21343,0.176078 q -1.47266,0 -2.11294,-0.848376 -0.64028,-0.864383 -0.64028,-2.224987 v -3.20142 h -1.07248 v -1.744774 l 1.21654,-0.09604 0.27212,-2.433079 h 1.95287 v 2.433079 h 1.90484 v 1.840816 h -1.90484 v 3.169406 q 0,0.672298 0.27212,0.976433 0.28812,0.288128 0.75233,0.288128 0.19209,0 0.38417,-0.03201 0.19209,-0.03201 0.36816,-0.09604 l 0.38417,1.648731 q -0.30413,0.128057 -0.76834,0.2241 -0.44819,0.09604 -1.00844,0.09604 z m 6.46686,-0.176078 V 24.357313 h 3.76167 q 1.10449,0 2.0169,0.304135 0.9124,0.288128 1.45664,1.008448 0.54424,0.704312 0.54424,1.936859 0,1.200532 -0.54424,1.952866 -0.54424,0.752333 -1.45664,1.120497 -0.91241,0.352156 -2.0169,0.352156 h -1.40862 v 3.761668 z m 2.35305,-5.634499 h 1.21654 q 0.92841,0 1.40862,-0.38417 0.49622,-0.400178 0.49622,-1.168518 0,-0.768341 -0.49622,-1.072476 -0.48021,-0.304135 -1.40862,-0.304135 h -1.21654 z m 3.29746,5.634499 -2.32103,-4.369938 1.63272,-1.520674 3.32948,5.890612 z m 7.36328,0.192085 q -1.13651,0 -2.04891,-0.49622 -0.91241,-0.49622 -1.44064,-1.424632 -0.52824,-0.928411 -0.52824,-2.240994 0,-1.296575 0.52824,-2.224986 0.54424,-0.928412 1.40862,-1.424632 0.86439,-0.512227 1.8088,-0.512227 1.13651,0 1.88884,0.512227 0.75234,0.49622 1.1205,1.360603 0.36816,0.864384 0.36816,1.936859 0,0.304135 -0.032,0.60827 -0.032,0.288128 -0.064,0.464206 h -5.20231 l -0.032,-1.632724 h 3.31347 q 0,-0.624277 -0.30414,-1.024455 -0.30413,-0.416184 -1.00844,-0.416184 -0.38417,0 -0.75234,0.208092 -0.36816,0.208092 -0.60827,0.72032 -0.2401,0.512227 -0.2241,1.424631 0.016,0.896398 0.32014,1.408625 0.32015,0.512227 0.80036,0.736327 0.48021,0.208092 1.00845,0.208092 0.4642,0 0.88039,-0.128057 0.43219,-0.144064 0.84837,-0.38417 l 0.76834,1.440639 q -0.59226,0.416184 -1.34459,0.656291 -0.75234,0.224099 -1.47265,0.224099 z m 6.89905,-0.01601 q -0.80036,0 -1.28057,-0.320142 -0.4642,-0.336149 -0.6723,-0.928412 -0.20809,-0.608269 -0.20809,-1.408624 v -8.723869 h 2.35304 v 8.819911 q 0,0.384171 0.12806,0.528235 0.14407,0.128056 0.30414,0.128056 0.064,0 0.11205,0 0.064,-0.01601 0.16007,-0.03201 l 0.28812,1.744774 q -0.19208,0.08004 -0.49622,0.128057 -0.28812,0.06403 -0.6883,0.06403 z m 4.41795,0.01601 q -0.72032,0 -1.26456,-0.320142 -0.52823,-0.320142 -0.81636,-0.864383 -0.28813,-0.544241 -0.28813,-1.21654 0,-1.280568 1.05647,-1.968873 1.05647,-0.704312 3.40951,-0.944419 -0.016,-0.352156 -0.16007,-0.592262 -0.12805,-0.256114 -0.40017,-0.384171 -0.27213,-0.144064 -0.68831,-0.144064 -0.49622,0 -1.00845,0.176079 -0.51222,0.176078 -1.10449,0.512227 l -0.83237,-1.536682 q 0.51223,-0.320142 1.05647,-0.544241 0.54424,-0.240107 1.1205,-0.368163 0.59226,-0.128057 1.21654,-0.128057 1.02445,0 1.71276,0.400177 0.70431,0.384171 1.07247,1.184526 0.36817,0.784347 0.36817,2.016894 v 4.530009 h -1.92085 l -0.16008,-0.816362 h -0.064 q -0.51223,0.448199 -1.07248,0.736327 -0.56025,0.27212 -1.23255,0.27212 z m 0.78435,-1.840816 q 0.40018,0 0.70431,-0.176078 0.30414,-0.176078 0.60827,-0.480213 v -1.344597 q -0.83237,0.11205 -1.32859,0.288128 -0.48021,0.176078 -0.6883,0.432192 -0.19209,0.240106 -0.19209,0.544241 0,0.368164 0.24011,0.560249 0.25611,0.176078 0.65629,0.176078 z m 8.4159,1.824809 q -1.47265,0 -2.11294,-0.848376 -0.64028,-0.864383 -0.64028,-2.224987 v -3.20142 h -1.07248 v -1.744774 l 1.21654,-0.09604 0.27212,-2.433079 h 1.95287 v 2.433079 h 1.90484 v 1.840816 h -1.90484 v 3.169406 q 0,0.672298 0.27212,0.976433 0.28813,0.288128 0.75233,0.288128 0.19209,0 0.38417,-0.03201 0.19209,-0.03201 0.36817,-0.09604 l 0.38417,1.648731 q -0.30414,0.128057 -0.76834,0.2241 -0.4482,0.09604 -1.00845,0.09604 z m 3.07336,-0.176078 v -7.939521 h 2.35304 v 7.939521 z m 1.16852,-9.108039 q -0.59227,0 -0.96043,-0.336149 -0.36816,-0.33615 -0.36816,-0.896398 0,-0.560248 0.36816,-0.896398 0.36816,-0.336149 0.96043,-0.336149 0.59226,0 0.96042,0.336149 0.36816,0.33615 0.36816,0.896398 0,0.560248 -0.36816,0.896398 -0.36816,0.336149 -0.96042,0.336149 z m 6.65893,9.300124 q -1.00845,0 -1.88884,-0.480213 -0.88039,-0.49622 -1.44064,-1.424632 -0.54424,-0.944418 -0.54424,-2.257001 0,-1.312582 0.54424,-2.240993 0.56025,-0.944419 1.44064,-1.424632 0.88039,-0.49622 1.88884,-0.49622 0.99244,0 1.87283,0.49622 0.88039,0.480213 1.42463,1.424632 0.56025,0.928411 0.56025,2.240993 0,1.312583 -0.56025,2.257001 -0.54424,0.928412 -1.42463,1.424632 -0.88039,0.480213 -1.87283,0.480213 z m 0,-1.904845 q 0.48021,0 0.80035,-0.27212 0.33615,-0.272121 0.49622,-0.784348 0.16007,-0.512227 0.16007,-1.200533 0,-0.688305 -0.16007,-1.200532 -0.16007,-0.512227 -0.49622,-0.784348 -0.32014,-0.27212 -0.80035,-0.27212 -0.49622,0 -0.81636,0.27212 -0.32015,0.272121 -0.48022,0.784348 -0.16007,0.512227 -0.16007,1.200532 0,0.688306 0.16007,1.200533 0.16007,0.512227 0.48022,0.784348 0.32014,0.27212 0.81636,0.27212 z m 5.47443,1.71276 v -7.939521 h 1.92085 l 0.16007,1.008447 h 0.064 q 0.49622,-0.49622 1.1205,-0.848376 0.62427,-0.352156 1.42463,-0.352156 1.31258,0 1.88883,0.864383 0.57626,0.848376 0.57626,2.337037 v 4.930186 h -2.35304 V 30.16789 q 0,-0.864383 -0.24011,-1.184525 -0.2241,-0.320142 -0.73633,-0.320142 -0.4482,0 -0.76834,0.208092 -0.32014,0.192086 -0.70431,0.560249 v 5.362378 z m 11.4931,0.192085 q -0.78435,0 -1.61672,-0.304135 -0.83237,-0.304134 -1.42463,-0.88039 l 0.99244,-1.328589 q 0.54424,0.432191 1.07248,0.608269 0.54424,0.160071 1.04046,0.160071 0.52823,0 0.76834,-0.176078 0.24011,-0.192085 0.24011,-0.49622 0,-0.27212 -0.2241,-0.448198 -0.2081,-0.176079 -0.56025,-0.304135 -0.33615,-0.144064 -0.76834,-0.304135 -0.57626,-0.208093 -1.05647,-0.528235 -0.48021,-0.320142 -0.78435,-0.76834 -0.28813,-0.448199 -0.28813,-1.072476 0,-1.120497 0.83237,-1.792795 0.84838,-0.688305 2.20898,-0.688305 0.86439,0 1.5687,0.288127 0.72032,0.272121 1.23254,0.72032 l -1.00844,1.312582 q -0.43219,-0.304135 -0.86439,-0.432192 -0.43219,-0.144063 -0.84837,-0.144063 -0.46421,0 -0.68831,0.176078 -0.2241,0.176078 -0.2241,0.448198 0,0.2241 0.16007,0.384171 0.16007,0.160071 0.48022,0.304135 0.33615,0.128056 0.83237,0.288127 0.60827,0.208093 1.10449,0.528235 0.51222,0.304135 0.80035,0.76834 0.28813,0.464206 0.28813,1.120497 0,0.72032 -0.38417,1.296575 -0.36817,0.576256 -1.08848,0.928412 -0.72032,0.336149 -1.7928,0.336149 z"
     id="path4" /></g></svg>
