<?xml version="1.0" encoding="UTF-8" standalone="no"?>
<!-- Generator: Adobe Illustrator 25.2.1, SVG Export Plug-In . SVG Version: 6.00 Build 0)  -->

<svg
   version="1.1"
   id="fullcolor"
   x="0px"
   y="0px"
   viewBox="0 0 221.40195 58.000002"
   xml:space="preserve"
   width="263.71954"
   height="69.085815"
   sodipodi:docname="uiuc-sler-logo-inkscape.svg"
   inkscape:version="1.4 (e7c3feb1, 2024-10-09)"
   xmlns:inkscape="http://www.inkscape.org/namespaces/inkscape"
   xmlns:sodipodi="http://sodipodi.sourceforge.net/DTD/sodipodi-0.dtd"
   xmlns="http://www.w3.org/2000/svg"
   xmlns:svg="http://www.w3.org/2000/svg"><sodipodi:namedview
   id="namedview1"
   pagecolor="#ffffff"
   bordercolor="#666666"
   borderopacity="1.0"
   inkscape:showpageshadow="2"
   inkscape:pageopacity="0.0"
   inkscape:pagecheckerboard="0"
   inkscape:deskcolor="#d1d1d1"
   inkscape:zoom="2.5216327"
   inkscape:cx="145.73891"
   inkscape:cy="25.77695"
   inkscape:window-width="1536"
   inkscape:window-height="907"
   inkscape:window-x="0"
   inkscape:window-y="25"
   inkscape:window-maximized="1"
   inkscape:current-layer="fullcolor" /><defs
   id="defs69">
	
	
	

		
		
		
		
		
		
		
		
		
		
		
		
		
		
		
		
		
		
		
		
		
		
		
		
		
		
		
		
		
		
		
		
		
		
		
		
		
		
		
		
		
		
		
		
		
		
		
		
		
		
		
		
		
		
		
		
		
		
		
		
		
		
		
		
		
		
	</defs>
<style
   type="text/css"
   id="style1">
	.st0{fill:#13294B;}
	.st1{fill:#FF552E;}
</style>
<g
   id="g3">
		<path
   class="st0"
   d="M 24.9,20.7 V 11 H 0 v 9.7 H 5.5 V 37.3 H 0 V 47 H 24.9 V 37.3 H 19.4 V 20.7 Z m -5.5,18 h 4.2 v 6.9 H 1.4 V 38.7 H 5.6 C 6.4,38.7 7,38.1 7,37.3 V 20.7 C 7,19.9 6.4,19.3 5.6,19.3 H 1.4 v -6.9 h 22.2 v 6.9 h -4.2 c -0.8,0 -1.4,0.6 -1.4,1.4 v 16.6 c 0,0.8 0.6,1.4 1.4,1.4 z"
   id="path1" />
		<g
   id="g2">
			<path
   class="st1"
   d="m 19.4,19.3 h 4.2 V 12.4 H 1.4 v 6.9 h 4.2 c 0.8,0 1.4,0.6 1.4,1.4 v 16.6 c 0,0.8 -0.6,1.4 -1.4,1.4 H 1.4 v 6.9 H 23.6 V 38.7 H 19.4 C 18.6,38.7 18,38.1 18,37.3 V 20.7 c 0,-0.8 0.6,-1.4 1.4,-1.4 z"
   id="path2" />
		</g>
	</g><rect
   x="42.900002"
   class="st0"
   width="1.1"
   height="58"
   id="rect3"
   y="0" /><path
   class="st0"
   d="m 62.401952,48.494144 v -2.8 h 0.9 v 2.8 c 0,1.1 0.4,1.4 1,1.4 0.6,0 1,-0.4 1,-1.4 v -2.8 h 0.8 v 2.8 c 0,1.6 -0.7,2.3 -1.9,2.3 -1.1,-0.1 -1.8,-0.7 -1.8,-2.3 z"
   id="path33" /><path
   class="st0"
   d="m 67.601952,45.694144 h 0.9 l 1.5,2.8 0.5,1 v 0 c 0,-0.5 -0.1,-1.1 -0.1,-1.7 v -2.1 h 0.8 v 4.9 h -0.9 l -1.4,-2.7 -0.5,-1 v 0 c 0,0.5 0.1,1.1 0.1,1.7 v 2.2 h -0.8 v -5.1 z"
   id="path34" /><path
   class="st0"
   d="m 72.801952,45.694144 h 0.9 v 4.9 h -0.9 z"
   id="path35" /><path
   class="st0"
   d="m 74.701952,45.694144 h 0.9 l 0.7,2.5 c 0.2,0.6 0.3,1 0.4,1.6 v 0 c 0.2,-0.6 0.3,-1 0.4,-1.6 l 0.7,-2.5 h 0.9 l -1.5,4.9 h -1 z"
   id="path36" /><path
   class="st0"
   d="m 79.701952,45.694144 h 3 v 0.7 h -2.1 v 1.3 h 1.8 v 0.7 h -1.8 v 1.5 h 2.2 v 0.7 h -3.1 z"
   id="path37" /><path
   class="st0"
   d="m 84.001952,45.694144 h 1.7 c 1,0 1.8,0.4 1.8,1.5 0,0.8 -0.4,1.2 -1,1.4 l 1.2,2.1 h -1 l -1,-2 h -0.8 v 1.9 h -0.9 z m 1.6,2.3 c 0.7,0 1,-0.3 1,-0.8 0,-0.6 -0.4,-0.8 -1,-0.8 h -0.7 v 1.6 z"
   id="path38" /><path
   class="st0"
   d="m 88.401952,49.994144 0.5,-0.6 c 0.4,0.3 0.8,0.6 1.3,0.6 0.6,0 0.9,-0.2 0.9,-0.6 0,-0.4 -0.3,-0.5 -0.8,-0.7 l -0.6,-0.4 c -0.5,-0.2 -1,-0.6 -1,-1.3 0,-0.8 0.7,-1.4 1.7,-1.4 0.6,0 1.1,0.2 1.5,0.6 l -0.4,0.6 c -0.3,-0.3 -0.6,-0.4 -1.1,-0.4 -0.5,0 -0.8,0.2 -0.8,0.6 0,0.4 0.4,0.5 0.8,0.7 l 0.7,0.3 c 0.6,0.2 1,0.6 1,1.3 0,0.8 -0.7,1.5 -1.8,1.5 -0.7,-0.1 -1.4,-0.3 -1.9,-0.8 z"
   id="path39" /><path
   class="st0"
   d="m 93.201952,45.694144 h 0.9 v 4.9 h -0.9 z"
   id="path40" /><path
   class="st0"
   d="m 96.601952,46.394144 h -1.4 v -0.7 h 3.7 v 0.7 h -1.4 v 4.2 h -0.9 z"
   id="path41" /><path
   class="st0"
   d="m 101.10195,48.794144 -1.499998,-3.1 h 0.899998 l 0.5,1.3 c 0.1,0.4 0.3,0.7 0.4,1.1 v 0 c 0.2,-0.4 0.3,-0.7 0.5,-1.1 l 0.5,-1.3 h 0.9 l -1.5,3.1 v 1.8 h -0.9 v -1.8 z"
   id="path42" /><path
   class="st0"
   d="m 105.60195,48.194144 c 0,-1.6 0.9,-2.5 2.2,-2.5 1.3,0 2.2,0.9 2.2,2.5 0,1.6 -0.9,2.6 -2.2,2.6 -1.3,-0.1 -2.2,-1 -2.2,-2.6 z m 3.4,0 c 0,-1.1 -0.5,-1.8 -1.3,-1.8 -0.8,0 -1.3,0.7 -1.3,1.8 0,1.1 0.5,1.8 1.3,1.8 0.9,0 1.3,-0.7 1.3,-1.8 z"
   id="path43" /><path
   class="st0"
   d="m 111.20195,45.694144 h 3 v 0.7 h -2.1 v 1.4 h 1.8 v 0.7 h -1.8 v 2.1 h -0.9 z"
   id="path44" /><path
   class="st0"
   d="m 116.90195,45.694144 h 0.9 v 4.9 h -0.9 z"
   id="path45" /><path
   class="st0"
   d="m 119.30195,45.694144 h 0.9 v 4.2 h 2.1 v 0.7 h -2.9 v -4.9 z"
   id="path46" /><path
   class="st0"
   d="m 123.30195,45.694144 h 0.9 v 4.2 h 2.1 v 0.7 h -2.9 v -4.9 z"
   id="path47" /><path
   class="st0"
   d="m 127.40195,45.694144 h 0.9 v 4.9 h -0.9 z"
   id="path48" /><path
   class="st0"
   d="m 129.70195,45.694144 h 0.9 l 1.5,2.8 0.5,1 v 0 c 0,-0.5 -0.1,-1.1 -0.1,-1.7 v -2.1 h 0.8 v 4.9 h -0.9 l -1.5,-2.8 -0.5,-1 v 0 c 0,0.5 0.1,1.1 0.1,1.7 v 2.2 h -0.8 z"
   id="path49" /><path
   class="st0"
   d="m 134.70195,48.194144 c 0,-1.6 0.9,-2.5 2.2,-2.5 1.3,0 2.2,0.9 2.2,2.5 0,1.6 -0.9,2.6 -2.2,2.6 -1.3,-0.1 -2.2,-1 -2.2,-2.6 z m 3.5,0 c 0,-1.1 -0.5,-1.8 -1.3,-1.8 -0.8,0 -1.3,0.7 -1.3,1.8 0,1.1 0.5,1.8 1.3,1.8 0.8,0 1.3,-0.7 1.3,-1.8 z"
   id="path50" /><path
   class="st0"
   d="m 140.40195,45.694144 h 0.9 v 4.9 h -0.9 z"
   id="path51" /><path
   class="st0"
   d="m 142.40195,49.994144 0.5,-0.6 c 0.4,0.3 0.8,0.6 1.3,0.6 0.6,0 0.9,-0.2 0.9,-0.6 0,-0.4 -0.3,-0.5 -0.8,-0.7 l -0.7,-0.3 c -0.5,-0.2 -1,-0.6 -1,-1.3 0,-0.8 0.7,-1.4 1.7,-1.4 0.6,0 1.1,0.2 1.5,0.6 l -0.4,0.6 c -0.3,-0.3 -0.6,-0.4 -1.1,-0.4 -0.5,0 -0.8,0.2 -0.8,0.6 0,0.4 0.4,0.5 0.8,0.7 l 0.7,0.3 c 0.6,0.2 1,0.6 1,1.3 0,0.8 -0.7,1.5 -1.8,1.5 -0.7,-0.2 -1.3,-0.4 -1.8,-0.9 z"
   id="path52" /><path
   class="st0"
   d="m 148.60195,48.494144 v -2.8 h 0.9 v 2.8 c 0,1.1 0.4,1.4 1,1.4 0.6,0 1,-0.4 1,-1.4 v -2.8 h 0.8 v 2.8 c 0,1.6 -0.7,2.3 -1.9,2.3 -1,-0.1 -1.8,-0.7 -1.8,-2.3 z"
   id="path53" /><path
   class="st0"
   d="m 153.90195,45.694144 h 1.7 c 1,0 1.8,0.4 1.8,1.5 0,0.8 -0.4,1.2 -1,1.4 l 1.2,2.1 h -1 l -1.1,-1.9 h -0.8 v 1.9 h -0.9 v -5 z m 1.6,2.3 c 0.7,0 1,-0.3 1,-0.8 0,-0.6 -0.4,-0.8 -1,-0.8 h -0.7 v 1.6 z"
   id="path54" /><path
   class="st0"
   d="m 158.70195,45.694144 h 1.6 c 1,0 1.8,0.3 1.8,1.2 0,0.5 -0.3,0.9 -0.7,1.1 v 0 c 0.5,0.1 0.9,0.5 0.9,1.2 0,1 -0.8,1.5 -1.9,1.5 h -1.7 z m 1.5,2 c 0.7,0 1,-0.3 1,-0.7 0,-0.5 -0.3,-0.7 -1,-0.7 h -0.6 v 1.4 z m 0.1,2.3 c 0.7,0 1.1,-0.3 1.1,-0.8 0,-0.5 -0.4,-0.7 -1.1,-0.7 h -0.7 v 1.6 h 0.7 z"
   id="path55" /><path
   class="st0"
   d="m 164.50195,45.694144 h 1 l 1.6,4.9 h -0.9 l -0.4,-1.3 h -1.7 l -0.4,1.3 h -0.9 z m -0.1,2.9 h 1.3 l -0.2,-0.6 c -0.2,-0.5 -0.3,-1.1 -0.4,-1.6 v 0 c -0.1,0.6 -0.3,1.1 -0.4,1.6 z"
   id="path56" /><path
   class="st0"
   d="m 168.10195,45.694144 h 0.9 l 1.5,2.8 0.5,1 v 0 c 0,-0.5 -0.1,-1.1 -0.1,-1.7 v -2.1 h 0.8 v 4.9 h -0.9 l -1.5,-2.8 -0.5,-1 v 0 c 0,0.5 0.1,1.1 0.1,1.7 v 2.2 h -0.8 z"
   id="path57" /><path
   class="st0"
   d="m 174.40195,45.694144 h 1 l 1.6,4.9 h -0.9 l -0.4,-1.3 h -1.7 l -0.4,1.3 h -0.9 z m -0.2,2.9 h 1.3 l -0.2,-0.6 c -0.2,-0.5 -0.3,-1.1 -0.4,-1.6 v 0 c -0.1,0.6 -0.3,1.1 -0.4,1.6 z"
   id="path58" /><path
   class="st0"
   d="m 177.70195,48.394144 h 1.8 v 0.6 h -1.8 z"
   id="path59" /><path
   class="st0"
   d="m 180.70195,48.194144 c 0,-1.6 1,-2.6 2.3,-2.6 0.6,0 1.1,0.3 1.4,0.6 l -0.5,0.6 c -0.3,-0.3 -0.6,-0.4 -0.9,-0.4 -0.8,0 -1.4,0.7 -1.4,1.8 0,1.1 0.5,1.8 1.4,1.8 0.4,0 0.8,-0.2 1.1,-0.5 l 0.5,0.6 c -0.4,0.5 -0.9,0.7 -1.6,0.7 -1.4,-0.1 -2.3,-1 -2.3,-2.6 z"
   id="path60" /><path
   class="st0"
   d="m 185.50195,45.694144 h 0.9 v 2 h 2 v -2 h 0.9 v 4.9 h -0.9 v -2.2 h -2 v 2.2 h -0.9 z"
   id="path61" /><path
   class="st0"
   d="m 191.80195,45.694144 h 1 l 1.6,4.9 h -0.9 l -0.4,-1.3 h -1.7 l -0.4,1.3 h -0.9 z m -0.1,2.9 h 1.3 l -0.2,-0.6 c -0.2,-0.5 -0.3,-1.1 -0.4,-1.6 v 0 c -0.1,0.6 -0.3,1.1 -0.4,1.6 z"
   id="path62" /><path
   class="st0"
   d="m 195.40195,45.694144 h 1 l 0.9,2.4 c 0.1,0.3 0.2,0.6 0.3,1 v 0 c 0.1,-0.3 0.2,-0.7 0.3,-1 l 0.9,-2.4 h 1 v 4.9 h -0.8 v -2.3 c 0,-0.5 0.1,-1.1 0.1,-1.6 v 0 l -0.4,1.1 -0.8,2.2 h -0.5 l -0.8,-2.2 -0.4,-1.1 v 0 c 0,0.5 0.1,1.1 0.1,1.6 v 2.3 h -0.8 v -4.9 z"
   id="path63" /><path
   class="st0"
   d="m 201.30195,45.694144 h 1.6 c 1.1,0 1.9,0.4 1.9,1.5 0,1.1 -0.8,1.6 -1.9,1.6 h -0.7 v 1.8 h -0.9 z m 1.6,2.4 c 0.7,0 1.1,-0.3 1.1,-0.9 0,-0.6 -0.4,-0.8 -1.1,-0.8 h -0.6 v 1.7 z"
   id="path64" /><path
   class="st0"
   d="m 206.80195,45.694144 h 1 l 1.6,4.9 h -0.9 l -0.4,-1.3 h -1.7 l -0.4,1.3 h -0.9 z m -0.2,2.9 h 1.3 l -0.2,-0.6 c -0.2,-0.5 -0.3,-1.1 -0.4,-1.6 v 0 c -0.1,0.6 -0.3,1.1 -0.4,1.6 z"
   id="path65" /><path
   class="st0"
   d="m 210.40195,45.694144 h 0.9 v 4.9 h -0.9 z"
   id="path66" /><path
   class="st0"
   d="m 212.50195,48.194144 c 0,-1.6 1,-2.6 2.3,-2.6 0.7,0 1.2,0.3 1.5,0.6 l -0.5,0.6 c -0.2,-0.2 -0.5,-0.4 -1,-0.4 -0.9,0 -1.5,0.7 -1.5,1.8 0,1.1 0.5,1.8 1.5,1.8 0.3,0 0.6,-0.1 0.7,-0.2 v -1.1 h -0.8 v -0.7 h 1.7 v 2.2 c -0.3,0.3 -0.9,0.6 -1.6,0.6 -1.3,-0.1 -2.3,-1 -2.3,-2.6 z"
   id="path67" /><path
   class="st0"
   d="m 217.80195,45.694144 h 0.9 l 1.5,2.8 0.5,1 v 0 c 0,-0.5 -0.1,-1.1 -0.1,-1.7 v -2.1 h 0.8 v 4.9 h -0.9 l -1.5,-2.8 -0.5,-1 v 0 c 0,0.5 0.1,1.1 0.1,1.7 v 2.2 h -0.8 z"
   id="path68" />
<text
   xml:space="preserve"
   style="font-size:16.0071px;line-height:0.95;font-family:sans-serif;stroke-width:0.839536;fill:#13294b;fill-opacity:1"
   x="61.086109"
   y="18.495047"
   id="text1"><tspan
     sodipodi:role="line"
     id="tspan1"
     style="font-style:normal;font-variant:normal;font-weight:bold;font-stretch:normal;font-size:16.0071px;line-height:0.95;font-family:'Source Sans 3';-inkscape-font-specification:'Source Sans 3 Bold';stroke-width:0.839536;fill:#13294b;fill-opacity:1"
     x="61.086109"
     y="18.495047">School of Labor and</tspan><tspan
     sodipodi:role="line"
     style="font-style:normal;font-variant:normal;font-weight:bold;font-stretch:normal;font-size:16.0071px;line-height:0.95;font-family:'Source Sans 3';-inkscape-font-specification:'Source Sans 3 Bold';stroke-width:0.839536;fill:#13294b;fill-opacity:1"
     x="61.086109"
     y="34.793945"
     id="tspan2">Employment Relations </tspan></text></svg>
