<?xml version="1.0" encoding="UTF-8" standalone="no"?>
<!-- Created with Inkscape (http://www.inkscape.org/) -->

<svg
   width="307.49921mm"
   height="174.65254mm"
   viewBox="0 0 307.49921 174.65255"
   version="1.1"
   id="svg1"
   xml:space="preserve"
   sodipodi:docname="marker.svg"
   inkscape:version="1.4 (e7c3feb1, 2024-10-09)"
   xmlns:inkscape="http://www.inkscape.org/namespaces/inkscape"
   xmlns:sodipodi="http://sodipodi.sourceforge.net/DTD/sodipodi-0.dtd"
   xmlns="http://www.w3.org/2000/svg"
   xmlns:svg="http://www.w3.org/2000/svg"><sodipodi:namedview
     id="namedview1"
     pagecolor="#ffffff"
     bordercolor="#666666"
     borderopacity="1.0"
     inkscape:showpageshadow="2"
     inkscape:pageopacity="0.0"
     inkscape:pagecheckerboard="0"
     inkscape:deskcolor="#d1d1d1"
     inkscape:document-units="mm"
     inkscape:zoom="0.72676045"
     inkscape:cx="853.10091"
     inkscape:cy="273.81787"
     inkscape:window-width="1536"
     inkscape:window-height="907"
     inkscape:window-x="0"
     inkscape:window-y="25"
     inkscape:window-maximized="1"
     inkscape:current-layer="layer1" /><defs
     id="defs1"><inkscape:path-effect
       effect="fillet_chamfer"
       id="path-effect11"
       is_visible="true"
       lpeversion="1"
       nodesatellites_param="F,0,0,1,0,0.79375003,0,1 @ F,0,0,1,0,0.79375003,0,1 @ F,0,0,1,0,0.79375003,0,1 @ F,0,0,1,0,0.79375003,0,1 @ F,0,0,1,0,0.79375003,0,1 @ F,0,0,1,0,0.79375003,0,1 @ F,0,0,1,0,0.79375003,0,1 @ F,0,0,1,0,0.79375003,0,1"
       radius="3"
       unit="px"
       method="auto"
       mode="F"
       chamfer_steps="1"
       flexible="false"
       use_knot_distance="true"
       apply_no_radius="true"
       apply_with_radius="true"
       only_selected="false"
       hide_knots="false" /><inkscape:path-effect
       effect="taper_stroke"
       start_shape="center | center"
       end_shape="center | center"
       id="path-effect10"
       is_visible="true"
       lpeversion="1"
       stroke_width="1.6"
       subpath="1"
       attach_start="3.7258549e-08"
       end_offset="0.49382854"
       start_smoothing="0.5"
       end_smoothing="0.5"
       jointype="extrapolated"
       miter_limit="100" /><inkscape:path-effect
       effect="taper_stroke"
       start_shape="center | center"
       end_shape="center | center"
       id="path-effect5"
       is_visible="true"
       lpeversion="1"
       stroke_width="1.6"
       subpath="1"
       attach_start="3.7258549e-08"
       end_offset="0.49382854"
       start_smoothing="0.5"
       end_smoothing="0.5"
       jointype="extrapolated"
       miter_limit="100" /><inkscape:path-effect
       effect="mirror_symmetry"
       start_point="230.0787,200.88924"
       end_point="230.0787,259.48956"
       center_point="230.0787,230.1894"
       id="path-effect3"
       is_visible="true"
       lpeversion="1.2"
       lpesatellites=""
       mode="free"
       discard_orig_path="false"
       fuse_paths="false"
       oposite_fuse="false"
       split_items="false"
       split_open="false"
       link_styles="false" /><inkscape:path-effect
       effect="mirror_symmetry"
       start_point="230.0787,200.88924"
       end_point="230.0787,259.48956"
       center_point="230.0787,230.1894"
       id="path-effect3-8"
       is_visible="true"
       lpeversion="1.2"
       lpesatellites=""
       mode="free"
       discard_orig_path="false"
       fuse_paths="false"
       oposite_fuse="false"
       split_items="false"
       split_open="false"
       link_styles="false" /></defs><g
     inkscape:label="Layer 1"
     inkscape:groupmode="layer"
     id="layer1"
     transform="translate(-61.921298,-88.261937)"><path
       style="fill:#000000"
       d="m 118.42077,262.53396 c -1.40317,-0.49986 -2.24187,-1.15624 -3.1903,-2.49679 l -0.79375,-1.12191 -0.0756,-9.65959 c -0.0705,-8.99666 -0.10677,-9.64756 -0.52917,-9.48433 -1.63391,0.63137 -4.85325,0.63937 -5.8642,0.0146 -0.1157,-0.0715 -0.26645,1.50473 -0.33501,3.50276 -0.14132,4.11889 -0.44677,5.14861 -2.00629,6.76344 -2.45852,2.54569 -5.784145,2.85716 -8.804515,0.8246 l -1.325363,-0.8919 -1.185429,0.90486 c -3.337055,2.54723 -8.260554,1.25561 -10.076222,-2.64338 l -0.616947,-1.32484 -0.0026,-16.99948 c -0.003,-19.56389 0.321599,-17.73203 -2.843055,-16.04591 -1.615558,0.86077 -1.937759,0.94046 -3.310691,0.81887 -0.908579,-0.0805 -2.230341,-0.46665 -3.282858,-0.95918 -2.184364,-1.02219 -7.194911,-4.51323 -8.413373,-5.86192 -1.090298,-1.20683 -1.602491,-2.74613 -1.354182,-4.06973 0.241752,-1.28865 1.786298,-2.96608 3.091049,-3.35699 0.566102,-0.16961 1.029448,-0.43836 1.029659,-0.59723 5.07e-4,-0.38127 3.917795,-31.27304 4.09823,-32.31868 l 0.1396,-0.80899 -3.752547,-0.42994 c -3.327562,-0.38126 -3.874423,-0.51562 -4.828827,-1.1864 -1.472025,-1.03458 -2.261595,-2.50336 -2.267056,-4.21724 -0.0057,-1.79645 0.967644,-10.2623 1.32644,-11.53669 0.298672,-1.06084 1.555194,-2.66659 2.469582,-3.15596 1.361087,-0.72843 2.47674,-0.68739 12.57107,0.46247 5.620549,0.64024 10.661208,1.23612 11.201464,1.32417 2.241842,0.36539 4.17709,2.67999 4.17709,4.99588 0,2.17392 -1.063665,10.84394 -1.464776,11.93951 -0.542299,1.48121 -1.944451,2.76763 -3.426887,3.14403 -0.954018,0.24224 -1.966538,0.22955 -4.6682,-0.0585 -1.897471,-0.20229 -3.488175,-0.32837 -3.534899,-0.28018 -0.09786,0.10095 -4.307966,33.15912 -4.42346,34.73343 -0.06373,0.8687 0.027,1.09649 0.541081,1.35845 0.905259,0.46129 1.28938,0.27703 4.034437,-1.93532 2.70952,-2.1837 4.450629,-3.10753 6.38215,-3.38634 l 1.244654,-0.17966 -1.572095,-1.04981 c -4.379216,-2.92433 -6.818164,-7.9498 -6.525487,-13.44583 0.274852,-5.16129 2.7217,-9.34386 7.134956,-12.19628 2.454933,-1.5867 4.783516,-2.22351 8.13061,-2.22351 3.541725,0 5.783747,0.66458 8.602687,2.55001 3.24036,2.16728 5.70204,5.80367 6.47001,9.55751 l 0.31183,1.52418 1.12535,-1.52418 c 0.61894,-0.8383 1.32461,-1.68759 1.56815,-1.88731 0.38828,-0.31841 0.44281,-1.04328 0.44281,-5.88698 v -5.52385 h -3.40011 c -3.63164,0 -4.68136,-0.21772 -6.08755,-1.2626 -1.71087,-1.27127 -1.87709,-2.07131 -1.88362,-9.06624 -0.005,-5.9394 0.0218,-6.28229 0.5895,-7.40479 0.34775,-0.68752 1.07216,-1.50857 1.74193,-1.97429 l 1.14661,-0.79729 7.35277,-0.0813 7.35276,-0.0813 0.11578,-3.62761 c 0.10771,-3.37501 0.16828,-3.7241 0.86985,-5.01312 0.41475,-0.76203 1.15437,-1.69081 1.64361,-2.06397 1.94859,-1.48627 1.4175,-1.45501 23.37885,-1.3762 20.16465,0.0724 20.23191,0.0744 21.2869,0.64471 1.36677,0.73886 2.64391,2.0808 3.16159,3.32198 0.26777,0.64199 0.41029,1.8138 0.41029,3.37344 0,1.48869 0.10447,2.38974 0.27709,2.38974 0.1524,0 2.28799,-0.24474 4.74576,-0.54387 3.53186,-0.42985 4.69478,-0.48299 5.54722,-0.25345 1.2309,0.33145 2.76218,1.56963 3.35216,2.71053 0.41188,0.79648 1.68818,10.15356 1.68818,12.3767 0,1.72385 -0.92977,3.38395 -2.40179,4.28839 -0.9663,0.59371 -1.79216,0.79579 -4.74196,1.16029 -1.96453,0.24276 -3.58974,0.45503 -3.61158,0.47171 -0.0218,0.0167 0.8172,7.82519 1.86453,17.35223 l 1.90423,17.3219 0.78131,0.16248 c 3.65774,0.76064 5.10643,4.39055 2.90444,7.2775 -0.90925,1.19208 -6.07424,4.91056 -8.4555,6.08744 -1.17853,0.58247 -2.46192,0.99468 -3.39747,1.09124 -1.35658,0.14001 -1.69633,0.0611 -3.47728,-0.8073 -1.08558,-0.52935 -2.15973,-0.96246 -2.38698,-0.96246 -0.37012,0 -0.4132,1.71962 -0.4132,16.49441 0,17.87682 -0.01,18.01459 -1.44952,19.90187 -0.9122,1.19595 -3.07043,2.41445 -4.66494,2.63375 -1.59931,0.21997 -3.70633,-0.36445 -5.12342,-1.42106 l -1.04114,-0.7763 -0.8058,0.60243 c -1.60145,1.19726 -2.60637,1.55556 -4.37767,1.5608 -1.40731,0.004 -1.97797,-0.13563 -3.14067,-0.76936 -2.78033,-1.51541 -3.47392,-3.07153 -3.47392,-7.79409 v -3.45121 l -1.12448,0.19455 c -1.41658,0.24508 -2.12913,0.24214 -3.70416,-0.0153 l -1.25677,-0.20542 v 9.15284 c 0,7.08139 -0.0807,9.34552 -0.35678,10.00423 -1.30263,3.10851 -5.04129,4.69107 -7.99529,3.38437 -0.71425,-0.31594 -1.55014,-0.81072 -1.85753,-1.0995 -0.52208,-0.49047 -0.5833,-0.49556 -0.92934,-0.0773 -0.5999,0.72516 -2.93138,1.68205 -4.0746,1.6723 -0.58209,-0.005 -1.5277,-0.17623 -2.10137,-0.38059 z m 3.97986,-3.59877 c 0.34972,-0.32855 0.75407,-1.02292 0.89856,-1.54305 0.15212,-0.54762 0.26332,-5.09425 0.26418,-10.80141 l 10e-4,-9.85573 h -3.04271 -3.04271 v 10.54765 c 0,10.37414 0.009,10.55948 0.56571,11.26683 0.31114,0.39556 0.81716,0.82688 1.12448,0.9585 0.88118,0.37738 2.53091,0.0849 3.23101,-0.57279 z m 9.43244,-0.22761 0.72761,-0.81427 V 247.31416 236.735 h -3.05423 -3.05423 l 0.0777,10.43204 c 0.0753,10.11541 0.0945,10.4547 0.63234,11.17864 1.23532,1.66278 3.36122,1.82749 4.67085,0.3619 z M 92.290498,248.46861 c 0.334369,-0.21191 0.83994,-0.76577 1.12349,-1.2308 0.486597,-0.79804 0.515602,-1.39896 0.516536,-10.70125 l 9.89e-4,-9.85573 h -3.580871 -3.58087 l 0.07514,10.16936 0.07514,10.16935 0.783811,0.81785 c 1.268103,1.32318 3.097498,1.57494 4.586632,0.63122 z m 10.003402,0.19683 c 0.80815,-0.367 1.23163,-0.79345 1.65365,-1.66522 0.54796,-1.13194 0.56729,-1.49815 0.56729,-10.74563 v -9.57376 h -3.70416 -3.704168 v 9.66579 c 0,10.53952 0.04951,10.93653 1.49142,11.95982 1.335392,0.94769 2.212158,1.03285 3.695968,0.359 z m 48.13255,-0.40093 c 1.58601,-1.03919 1.57402,-0.95458 1.65929,-11.7158 l 0.0782,-9.86788 h -3.58392 -3.58391 l 9.8e-4,9.85573 c 9.2e-4,9.15647 0.0361,9.91322 0.49517,10.66611 0.98101,1.60872 3.32854,2.11391 4.9342,1.06184 z m 10.68632,-0.0857 c 1.57524,-1.15366 1.60954,-1.40737 1.60999,-11.90682 l 4.1e-4,-9.59115 h -3.70416 -3.70417 v 9.81491 c 0,8.86464 0.0448,9.8928 0.46302,10.61945 0.96091,1.66967 3.74851,2.22543 5.33491,1.06361 z m -47.86668,-11.6778 0.66146,-0.48387 0.1323,-7.85308 c 0.1436,-8.52438 0.10934,-8.34964 1.63864,-8.35833 1.42545,-0.008 1.53635,0.53062 1.53635,7.46315 v 6.29113 l 7.73907,1.4e-4 7.73906,1.4e-4 -0.0908,-6.36825 c -0.0822,-5.76846 -0.0472,-6.41639 0.37174,-6.87931 0.57634,-0.63686 1.7507,-0.66135 2.30269,-0.048 0.3537,0.393 0.42992,1.58917 0.50403,7.9101 0.0807,6.88745 0.12525,7.48899 0.59234,8.00476 1.22827,1.35629 4.37972,1.20926 5.10766,-0.2383 0.42252,-0.84023 0.47385,-15.55372 0.0624,-17.87693 -0.56904,-3.21268 -1.29837,-4.90068 -2.74053,-6.34285 -0.99104,-0.99104 -1.67856,-1.43215 -2.58977,-1.6616 -0.84641,-0.21313 -4.46639,-0.31237 -11.3941,-0.31237 -11.55513,0 -12.18436,0.0827 -13.93189,1.8302 -1.75184,1.75183 -2.6827,4.27229 -3.1905,8.63881 -0.34386,2.95675 -0.0568,15.29002 0.36939,15.87292 0.84001,1.14878 3.84619,1.38761 5.18047,0.41157 z m -8.89198,-14.11966 c 0.075,-0.61846 0.19999,-1.95791 0.27786,-2.97656 0.43235,-5.65544 3.04848,-10.21841 6.83216,-11.91642 1.42368,-0.63891 2.06931,-0.75376 4.83653,-0.86036 l 3.19353,-0.12303 -2.13186,-1.10505 c -1.87878,-0.97387 -2.2407,-1.07645 -3.0487,-0.86412 -1.47881,0.3886 -3.0893,0.007 -6.20834,-1.4705 l -2.92899,-1.3876 h -9.260413 c -10.64611,0 -9.814482,-0.16808 -13.233651,2.67462 -2.858285,2.37639 -3.818407,2.83366 -5.663272,2.69721 -1.296365,-0.0959 -1.797743,-0.32476 -4.119805,-1.88061 -1.980633,-1.32708 -2.871385,-1.77143 -3.551042,-1.77143 -1.003698,0 -1.874936,0.62333 -1.874936,1.34144 0,1.34597 8.307348,6.86064 10.334942,6.86064 0.294057,0 1.2569,-0.37589 2.13965,-0.83531 2.033387,-1.05826 3.827245,-1.26259 5.290753,-0.60264 0.607709,0.27404 1.176035,0.75539 1.310996,1.11036 0.131033,0.34465 0.238241,3.23825 0.238241,6.43023 v 5.80361 h 8.715038 8.715039 z m 58.36906,-4.84604 c 0,-3.77088 0.10533,-6.16731 0.28588,-6.50469 0.38456,-0.71854 1.81821,-1.28312 3.25828,-1.28312 0.83366,0 1.70124,0.27174 2.95652,0.92604 0.97715,0.50932 2.08713,0.92595 2.46662,0.92583 2.0799,-6.3e-4 10.34729,-5.56156 10.34729,-6.95995 0,-0.62497 -0.90803,-1.2419 -1.82695,-1.24125 -0.70378,5e-4 -1.46732,0.34833 -2.93555,1.33729 -2.90128,1.95423 -3.79958,2.36621 -5.15938,2.36621 -1.5494,0 -2.63193,-0.56476 -5.46598,-2.85165 -3.50818,-2.83085 -3.10664,-2.75169 -13.46691,-2.65494 l -8.84836,0.0826 -2.96483,1.39251 c -3.23962,1.52158 -4.71413,1.85604 -6.27846,1.42411 -0.88018,-0.24303 -1.12635,-0.20867 -1.76549,0.24644 -0.40849,0.29086 -1.37284,0.81514 -2.143,1.16505 l -1.4003,0.6362 2.64584,0.0194 c 4.43158,0.0325 6.91624,0.91909 8.98139,3.20497 2.08366,2.30636 3.57577,7.11926 3.58284,11.55666 l 0.004,2.18281 h 8.86353 8.86354 z M 127.3404,203.8025 c 9.93925,-2.10617 13.63684,-14.31659 6.53882,-21.59293 -2.55145,-2.61556 -6.58834,-4.1573 -10.06654,-3.84454 -6.86485,0.61728 -11.8895,6.06129 -11.8895,12.88179 0,6.08248 4.18492,11.25113 10.16289,12.55182 2.11622,0.46045 3.09623,0.46117 5.25433,0.004 z m 45.438,-0.36716 c 0.002,-0.78369 -3.99929,-36.9326 -4.09898,-37.03229 -0.0535,-0.0535 -1.61208,0.0982 -3.4636,0.3369 -3.68302,0.47493 -4.46152,0.40626 -6.10509,-0.53851 -1.16095,-0.66735 -2.47297,-2.78878 -2.47297,-3.9986 0,-0.60826 -0.008,-0.60951 -3.83646,-0.60951 h -3.83646 v 4.26164 c 0,3.95047 0.0338,4.24858 0.46302,4.08275 3.02436,-1.1685 7.76051,-0.77015 11.4199,0.9605 2.39775,1.13398 5.63714,4.41254 6.85919,6.94212 2.43321,5.03661 2.05126,10.73545 -1.02811,15.33947 -1.28586,1.92253 -2.91337,3.51378 -4.69979,4.59508 l -0.87643,0.53049 1.2733,0.18396 c 1.93251,0.27919 3.67913,1.19946 6.28043,3.30903 1.29871,1.05322 2.6084,2.00683 2.91041,2.11914 0.71086,0.26435 1.2103,0.0656 1.21164,-0.48217 z m 3.9,-2.09424 0.59376,-0.45714 -1.91703,-17.4625 -1.91703,-17.4625 -0.72725,-0.0837 c -0.46361,-0.0534 -0.7313,0.0426 -0.7384,0.26458 -0.0271,0.84766 3.85587,35.66956 3.97692,35.6643 0.0744,-0.003 0.40246,-0.2116 0.72903,-0.46302 z M 75.151351,184.7691 c 1.161277,-9.12418 2.111412,-16.8291 2.111412,-17.12204 0,-0.42456 -0.147094,-0.51564 -0.72496,-0.4489 l -0.72496,0.0837 -2.109363,16.62522 -2.109363,16.62522 0.647558,0.48845 c 0.356157,0.26865 0.681467,0.45455 0.722911,0.4131 0.04144,-0.0414 1.025489,-7.54059 2.186765,-16.66477 z m 35.988639,14.90848 c -1.03294,-1.59816 -1.93522,-3.93714 -2.28678,-5.928 l -0.18523,-1.04896 -0.42292,0.65208 c -0.86312,1.33081 -2.58389,3.01638 -4.05579,3.97281 l -1.5162,0.98522 1.5162,0.18705 c 1.51829,0.18731 4.67205,1.29487 6.41099,2.25146 1.51979,0.83603 1.63056,0.61607 0.53973,-1.07166 z m 29.00136,0.48053 c 1.36656,-0.65572 3.21458,-1.29248 4.44282,-1.53082 l 2.10299,-0.40808 -0.91877,-0.54209 c -1.30402,-0.76939 -2.81668,-2.14353 -3.98424,-3.61938 l -1.00469,-1.26996 -0.16373,0.7408 c -0.64566,2.92113 -1.59944,5.30095 -2.81534,7.02465 -0.28228,0.40018 -0.39751,0.7276 -0.25606,0.7276 0.14146,0 1.31012,-0.50522 2.59702,-1.12272 z m -40.782513,-3.90552 c 5.402223,-1.85864 8.537643,-6.50717 8.285013,-12.28327 -0.0926,-2.11725 -0.22696,-2.67358 -1.07899,-4.46772 -4.46004,-9.39158 -17.620555,-9.41494 -22.073082,-0.0392 -1.669179,3.51482 -1.521832,7.95171 0.372558,11.21839 1.516833,2.61563 4.070918,4.68793 6.887526,5.58833 2.134271,0.68227 5.59773,0.67474 7.606975,-0.0165 z m 58.397473,-0.0191 c 0.89706,-0.3022 2.26398,-0.96959 3.03761,-1.48309 5.71034,-3.79031 7.06782,-11.94072 2.90103,-17.41792 -4.52964,-5.95413 -13.04753,-6.57284 -18.32435,-1.33102 -6.47598,6.43303 -3.99677,17.12718 4.69553,20.25432 1.99736,0.71856 5.52129,0.70835 7.69018,-0.0223 z m -17.52568,-18.57821 0.79671,-1.59435 v -7.23379 -7.23378 h -3.65042 -3.65043 l -0.30064,1.75511 c -0.33461,1.95348 -1.21129,3.29405 -2.74531,4.19802 -0.76458,0.45055 -1.47778,0.5426 -4.80059,0.61958 l -3.90261,0.0904 v 3.56867 3.56866 l 1.65365,-0.16812 c 4.81238,-0.48927 10.76573,2.18111 13.74622,6.16588 l 1.12933,1.50987 0.46369,-1.8259 c 0.25503,-1.00425 0.82221,-2.54336 1.2604,-3.42026 z m -22.10219,-1.02314 0.67391,-0.30705 v -4.05857 -4.05857 h -0.79375 -0.79376 v 4.36562 c 0,2.40109 0.0539,4.36563 0.11985,4.36563 0.0659,0 0.4231,-0.13818 0.79375,-0.30706 z m 27.00925,-4.61816 0.65215,-0.42731 v -4.99665 -4.99666 h -0.79375 -0.79375 v 5.42396 c 0,2.98318 0.0637,5.42396 0.1416,5.42396 0.0779,0 0.43507,-0.19229 0.79375,-0.4273 z m -56.31512,-7.60352 c 0.506537,-0.49652 0.650172,-1.19556 1.139469,-5.54554 0.307929,-2.73757 0.523359,-5.40465 0.478735,-5.92684 -0.149131,-1.7451 -0.27262,-1.77711 -11.937669,-3.09391 -10.969791,-1.23831 -11.348483,-1.2433 -12.02592,-0.15855 -0.409988,0.65649 -1.533424,10.78805 -1.298014,11.70596 0.102159,0.39834 0.451745,0.89346 0.776856,1.10026 0.647688,0.41198 20.83501,2.83804 21.757778,2.61478 0.291041,-0.0704 0.789985,-0.38369 1.108765,-0.69616 z m 40.74679,-0.0161 0.74236,-0.63855 v -5.86665 -5.86665 l -0.74236,-0.63855 -0.74236,-0.63855 h -10.84519 -10.84518 l -0.64944,0.64943 -0.64943,0.64943 v 5.84489 5.84488 l 0.64943,0.64943 0.64944,0.64944 h 10.84518 10.84519 z m 42.41423,-1.62178 c 5.60255,-0.66355 10.57029,-1.37551 11.03941,-1.58213 0.55713,-0.2454 0.91728,-0.63067 1.03843,-1.11089 0.2123,-0.84148 -0.88204,-10.71394 -1.28586,-11.60023 -0.58207,-1.27749 -0.88808,-1.27651 -11.94941,0.0383 -5.69357,0.67676 -10.64852,1.36666 -11.01099,1.53311 -1.28368,0.58946 -1.33829,1.15851 -0.65068,6.7801 0.34709,2.83766 0.69598,5.42426 0.77532,5.748 0.11798,0.4814 1.17862,1.33444 1.72503,1.38739 0.0728,0.007 4.7162,-0.53008 10.31875,-1.19363 z m -15.88024,-4.94957 c -0.003,-0.32742 -0.127,-1.42875 -0.27582,-2.44739 -0.61653,-4.22015 -0.17551,-6.23875 1.66768,-7.6332 1.12619,-0.85201 2.16145,-1.09433 7.0139,-1.64172 l 4.0349,-0.45515 v -2.37019 c 0,-2.71321 -0.3813,-3.65102 -1.74816,-4.29963 -1.24278,-0.58974 -39.68518,-0.6065 -40.8236,-0.0178 -1.4544,0.75209 -1.72982,1.53832 -1.83526,5.23904 l -0.0961,3.37344 2.34167,10e-4 c 3.1433,0.002 4.22038,0.3359 5.55586,1.72246 1.33542,1.38649 1.68061,2.71975 1.68061,6.49117 v 2.63281 h 11.24479 11.24479 z"
       id="path1" /><circle
       style="fill:none;stroke:#000000;stroke-width:3;stroke-linecap:round;stroke-dasharray:none;paint-order:fill markers stroke"
       id="path2"
       cx="230.0787"
       cy="189.7744"
       r="12.151235" /><path
       style="fill:none;stroke:#000000;stroke-width:3;stroke-linecap:butt;stroke-linejoin:round;stroke-dasharray:none;stroke-opacity:1"
       d="m 225.375,200.69325 c 0,0 -8.88551,0.32196 -12.29475,2.56533 -5.36163,3.52815 -5.36283,25.06894 -5.36283,25.06894 4.00721,5.0758 9.03412,0 9.03412,0 l 1.04783,-13.71914 c 0,20.2679 3.21898,31.62955 12.23441,41.03696 m 4.74862,-54.95209 c 0,0 8.88551,0.32196 12.29475,2.56533 5.36163,3.52815 5.36283,25.06894 5.36283,25.06894 -4.00721,5.0758 -9.03412,0 -9.03412,0 l -1.04783,-13.71914 c 0,20.2679 -3.21898,31.62955 -12.23441,41.03696"
       id="path3"
       inkscape:path-effect="#path-effect3"
       inkscape:original-d="m 225.375,200.69325 c 0,0 -8.88551,0.32196 -12.29475,2.56533 -5.36163,3.52815 -5.36283,25.06894 -5.36283,25.06894 4.00721,5.0758 9.03412,0 9.03412,0 l 1.04783,-13.71914 c 0,20.2679 3.21898,31.62955 12.23441,41.03696"
       sodipodi:nodetypes="cscccc" /><path
       id="path2-9"
       style="fill:none;stroke:#000000;stroke-width:3;stroke-linecap:round;paint-order:fill markers stroke"
       d="m 275.46923,116.00768 c 0,6.71095 -5.44029,12.15124 -12.15124,12.15124 -6.71094,0 -12.15123,-5.4403 -12.15123,-12.15124 0,-6.71094 5.44029,-12.15123 12.15123,-12.15123 6.71094,0 12.15124,5.44029 12.15124,12.15123 z"
       sodipodi:nodetypes="sssss" /><path
       style="fill:none;stroke:#000000;stroke-width:3;stroke-linecap:butt;stroke-linejoin:round;stroke-dasharray:none;stroke-opacity:1"
       d="m 225.375,200.69325 c 0,0 -8.88551,0.32196 -12.29475,2.56533 -5.36163,3.52815 -5.36283,25.06894 -5.36283,25.06894 4.00721,5.0758 9.03412,0 9.03412,0 l 1.04783,-13.71914 c 0,20.2679 3.21898,31.62955 12.27933,41.03696 9.06035,-9.40741 12.27933,-20.76906 12.27933,-41.03696 l 1.04783,13.71914 c 0,0 5.02691,5.0758 9.03412,0 0,0 -0.001,-21.54079 -5.36283,-25.06894 -3.40924,-2.24337 -12.29475,-2.56533 -12.29475,-2.56533"
       id="path3-8"
       sodipodi:nodetypes="csccccccccc"
       transform="translate(33.239297,-73.766713)" /><path
       style="fill:none;stroke:#000000;stroke-width:2;stroke-linecap:butt;stroke-linejoin:miter;stroke-dasharray:none;stroke-opacity:1"
       d="m 251.71566,153.18655 c 11.44128,3.51464 23.25216,0 23.25216,0"
       id="path4"
       sodipodi:nodetypes="cc" /><path
       style="fill:#000000;fill-rule:nonzero;stroke:none;stroke-width:1;stroke-linecap:butt;stroke-linejoin:miter;stroke-dasharray:none;stroke-opacity:1"
       d="m 262.53752,154.40304 v 10.20211 c 0,4.97666 0.8,9.95333 0.8,9.95333 0,0 0.8,-4.97667 0.8,-9.95333 v -10.20211 z"
       id="path5"
       sodipodi:nodetypes="cc"
       inkscape:path-effect="#path-effect5"
       inkscape:original-d="m 263.33752,154.40304 v 20.15544"
       transform="translate(0,-0.52916667)" /><path
       style="fill:#dfd5bb;fill-opacity:1;stroke:#000000;stroke-width:3;stroke-linecap:butt;stroke-linejoin:round;stroke-dasharray:none;stroke-opacity:1"
       d="m 327.72994,126.92654 c 0,0 -8.88551,0.32196 -12.29475,2.56533 -5.36163,3.52815 -5.36283,25.06894 -5.36283,25.06894 4.00721,5.0758 9.03412,0 9.03412,0 l 1.04783,-13.71914 c 0,20.2679 3.21898,31.62955 12.27933,41.03696 9.06035,-9.40741 11.93505,-24.05273 11.93505,-44.32063 l 15.70487,1.64998 c 0,0 4.7919,-2.75256 1.77956,-8.52301 0,0 -7.78504,-1.02605 -13.95682,-1.83301 -3.40924,-2.24337 -10.75896,-1.92542 -10.75896,-1.92542"
       id="path7"
       sodipodi:nodetypes="csccccccccc" /><path
       style="fill:none;stroke:#000000;stroke-width:2;stroke-linecap:butt;stroke-linejoin:miter;stroke-dasharray:none;stroke-opacity:1"
       d="m 320.83131,153.18655 c 11.44128,3.51464 23.25216,0 23.25216,0"
       id="path8"
       sodipodi:nodetypes="cc" /><path
       style="fill:#000000;fill-rule:nonzero;stroke:none;stroke-width:1;stroke-linecap:butt;stroke-linejoin:miter;stroke-dasharray:none;stroke-opacity:1"
       d="m 262.53752,154.40304 v 10.20211 c 0,4.97666 0.8,9.95333 0.8,9.95333 0,0 0.8,-4.97667 0.8,-9.95333 v -10.20211 z"
       id="path9"
       sodipodi:nodetypes="cc"
       inkscape:path-effect="#path-effect10"
       inkscape:original-d="m 263.33752,154.40304 v 20.15544"
       transform="translate(69.115646,-0.52916667)" /><path
       id="path6"
       style="fill:#999999;stroke:#000000;stroke-width:3;stroke-linecap:round;paint-order:fill markers stroke"
       d="m 344.58488,116.00768 c 0,6.71095 -5.44029,12.15124 -12.15124,12.15124 -6.71094,0 -12.15123,-5.4403 -12.15123,-12.15124 0,-6.71094 5.44029,-12.15123 12.15123,-12.15123 6.71094,0 12.15124,5.44029 12.15124,12.15123 z"
       sodipodi:nodetypes="sssss" /><path
       id="rect10"
       style="fill:#ffffff;stroke:#000000;stroke-width:1.5;stroke-linecap:butt;stroke-linejoin:round;stroke-dasharray:none;paint-order:fill markers stroke"
       d="M 358.41431,78.558939 V 93.44692 a 0.79375003,0.79375003 45 0 0 0.79375,0.79375 h 13.02143 a 0.79375003,0.79375003 45 0 1 0.79375,0.79375 v 25.57157 a 0.79375003,0.79375003 45 0 0 0.79375,0.79375 h 0.34313 a 0.79375003,0.79375003 135 0 0 0.79375,-0.79375 l 0,-25.57157 a 0.79375003,0.79375003 135 0 1 0.79375,-0.79375 l 13.02194,0 a 0.79375003,0.79375003 135 0 0 0.79375,-0.79375 V 78.558939 a 0.79375003,0.79375003 45 0 0 -0.79375,-0.79375 h -29.5615 a 0.79375003,0.79375003 135 0 0 -0.79375,0.79375 z"
       inkscape:path-effect="#path-effect11"
       inkscape:original-d="M 358.41431,77.765189 V 94.24067 h 14.60893 v 27.15907 h 1.93063 V 94.24067 h 14.60944 V 77.765189 Z"
       transform="rotate(-10.606391,437.53216,211.48091)" /><path
       style="fill:#7383ac;fill-opacity:1;stroke:#000000;stroke-width:2.75799;stroke-linecap:butt;stroke-linejoin:round;stroke-dasharray:none;paint-order:fill markers stroke"
       d="m 1020.0801,164.12159 c -16.7814,-19.93885 -27.08968,-42.69693 -32.69259,-72.177139 -1.47633,-7.767845 -2.95172,-18.20825 -2.61999,-18.539982 0.13481,-0.134809 2.56483,0.202554 5.40004,0.749695 6.51554,1.257368 15.39624,2.311527 22.99004,2.728977 l 5.9037,0.324539 0.2515,22.9357 c 0.1715,15.63825 0.4927,25.25744 1.0096,30.23288 1.1598,11.16353 1.8807,15.97729 2.284,15.25012 0.7163,-1.29181 2.447,-19.22687 2.8975,-30.0281 0.2525,-6.05296 0.4637,-17.179825 0.4693,-24.726362 l 0.01,-13.720976 1.5811,-0.240346 c 0.8696,-0.13219 3.9891,-0.369765 6.9323,-0.527944 5.0385,-0.27079 15.5046,-1.582007 20.9182,-2.620693 1.3376,-0.25664 2.483,-0.41565 2.5453,-0.353356 0.2749,0.274958 -2.5144,16.823673 -4.0377,23.955614 -5.5333,25.904743 -13.9861,45.978103 -26.4974,62.925053 -2.1202,2.87187 -4.1624,5.47673 -4.5381,5.78858 -0.5505,0.45684 -1.0957,0.0768 -2.8069,-1.95626 z"
       id="path11"
       transform="matrix(0.26458333,0,0,0.26458333,61.921298,135.42937)" /></g></svg>
